%TF.GenerationSoftware,KiCad,Pcbnew,(6.0.10-0)*%
%TF.CreationDate,2023-04-17T19:00:21-04:00*%
%TF.ProjectId,my_anode,6d795f61-6e6f-4646-952e-6b696361645f,rev?*%
%TF.SameCoordinates,Original*%
%TF.FileFunction,Copper,L2,Bot*%
%TF.FilePolarity,Positive*%
%FSLAX46Y46*%
G04 Gerber Fmt 4.6, Leading zero omitted, Abs format (unit mm)*
G04 Created by KiCad (PCBNEW (6.0.10-0)) date 2023-04-17 19:00:21*
%MOMM*%
%LPD*%
G01*
G04 APERTURE LIST*
%TA.AperFunction,ComponentPad*%
%ADD10C,2.286000*%
%TD*%
%TA.AperFunction,ViaPad*%
%ADD11C,0.800000*%
%TD*%
G04 APERTURE END LIST*
D10*
%TO.P,D1,1,K*%
%TO.N,Net-(C1-Pad2)*%
X246614000Y-157530800D03*
%TO.P,D1,2,A*%
%TO.N,/G1*%
X239114000Y-157530800D03*
%TD*%
%TO.P,D3,1,K*%
%TO.N,Net-(C5-Pad2)*%
X157082800Y-238125000D03*
%TO.P,D3,2,A*%
%TO.N,/G3*%
X164582800Y-238125000D03*
%TD*%
%TO.P,D4,1,K*%
%TO.N,Net-(C7-Pad2)*%
X242857000Y-240950600D03*
%TO.P,D4,2,A*%
%TO.N,/G4*%
X242857000Y-233450600D03*
%TD*%
%TO.P,D2,1,K*%
%TO.N,Net-(C3-Pad2)*%
X161239200Y-152917200D03*
%TO.P,D2,2,A*%
%TO.N,/G2*%
X161239200Y-160417200D03*
%TD*%
D11*
%TO.N,Net-(J4-Pad1)*%
X244119400Y-168783000D03*
%TO.N,Net-(J4-Pad2)*%
X174819799Y-156912799D03*
%TO.N,Net-(J4-Pad3)*%
X161188400Y-247853200D03*
%TO.N,Net-(J4-Pad4)*%
X233476800Y-236550200D03*
%TD*%
%TA.AperFunction,Conductor*%
%TO.N,Net-(J4-Pad4)*%
G36*
X279152121Y-202605802D02*
G01*
X279198614Y-202659458D01*
X279210000Y-202711800D01*
X279210000Y-275959800D01*
X279189998Y-276027921D01*
X279136342Y-276074414D01*
X279084000Y-276085800D01*
X205836000Y-276085800D01*
X205767879Y-276065798D01*
X205721386Y-276012142D01*
X205710000Y-275959800D01*
X205710000Y-242620800D01*
X237427800Y-242620800D01*
X248427800Y-242620800D01*
X248427800Y-231620800D01*
X237427800Y-231620800D01*
X237427800Y-242620800D01*
X205710000Y-242620800D01*
X205710000Y-202711800D01*
X205730002Y-202643679D01*
X205783658Y-202597186D01*
X205836000Y-202585800D01*
X279084000Y-202585800D01*
X279152121Y-202605802D01*
G37*
%TD.AperFunction*%
%TD*%
%TA.AperFunction,Conductor*%
%TO.N,Net-(J4-Pad1)*%
G36*
X279211121Y-121114002D02*
G01*
X279257614Y-121167658D01*
X279269000Y-121220000D01*
X279269000Y-194468000D01*
X279248998Y-194536121D01*
X279195342Y-194582614D01*
X279143000Y-194594000D01*
X205895000Y-194594000D01*
X205826879Y-194573998D01*
X205780386Y-194520342D01*
X205769000Y-194468000D01*
X205769000Y-162941000D01*
X237402400Y-162941000D01*
X248402400Y-162941000D01*
X248402400Y-151941000D01*
X237402400Y-151941000D01*
X237402400Y-162941000D01*
X205769000Y-162941000D01*
X205769000Y-121220000D01*
X205789002Y-121151879D01*
X205842658Y-121105386D01*
X205895000Y-121094000D01*
X279143000Y-121094000D01*
X279211121Y-121114002D01*
G37*
%TD.AperFunction*%
%TD*%
%TA.AperFunction,Conductor*%
%TO.N,Net-(J4-Pad2)*%
G36*
X197921921Y-121177002D02*
G01*
X197968414Y-121230658D01*
X197979800Y-121283000D01*
X197979800Y-194531000D01*
X197959798Y-194599121D01*
X197906142Y-194645614D01*
X197853800Y-194657000D01*
X124605800Y-194657000D01*
X124537679Y-194636998D01*
X124491186Y-194583342D01*
X124479800Y-194531000D01*
X124479800Y-162179000D01*
X155766800Y-162179000D01*
X166766800Y-162179000D01*
X166766800Y-151179000D01*
X155766800Y-151179000D01*
X155766800Y-162179000D01*
X124479800Y-162179000D01*
X124479800Y-121283000D01*
X124499802Y-121214879D01*
X124553458Y-121168386D01*
X124605800Y-121157000D01*
X197853800Y-121157000D01*
X197921921Y-121177002D01*
G37*
%TD.AperFunction*%
%TD*%
%TA.AperFunction,Conductor*%
%TO.N,Net-(J4-Pad3)*%
G36*
X197896521Y-202428002D02*
G01*
X197943014Y-202481658D01*
X197954400Y-202534000D01*
X197954400Y-275782000D01*
X197934398Y-275850121D01*
X197880742Y-275896614D01*
X197828400Y-275908000D01*
X124580400Y-275908000D01*
X124512279Y-275887998D01*
X124465786Y-275834342D01*
X124454400Y-275782000D01*
X124454400Y-243763800D01*
X155309600Y-243763800D01*
X166309600Y-243763800D01*
X166309600Y-232763800D01*
X155309600Y-232763800D01*
X155309600Y-243763800D01*
X124454400Y-243763800D01*
X124454400Y-210129600D01*
X188868932Y-210129600D01*
X188888765Y-210356292D01*
X188947661Y-210576096D01*
X189043832Y-210782334D01*
X189174353Y-210968739D01*
X189335261Y-211129647D01*
X189521666Y-211260168D01*
X189526644Y-211262489D01*
X189526647Y-211262491D01*
X189722922Y-211354016D01*
X189727904Y-211356339D01*
X189733212Y-211357761D01*
X189733214Y-211357762D01*
X189942393Y-211413811D01*
X189942395Y-211413811D01*
X189947708Y-211415235D01*
X190046702Y-211423896D01*
X190114892Y-211429862D01*
X190114899Y-211429862D01*
X190117616Y-211430100D01*
X190231184Y-211430100D01*
X190233901Y-211429862D01*
X190233908Y-211429862D01*
X190302098Y-211423896D01*
X190401092Y-211415235D01*
X190406405Y-211413811D01*
X190406407Y-211413811D01*
X190615586Y-211357762D01*
X190615588Y-211357761D01*
X190620896Y-211356339D01*
X190625878Y-211354016D01*
X190822153Y-211262491D01*
X190822156Y-211262489D01*
X190827134Y-211260168D01*
X191013539Y-211129647D01*
X191174447Y-210968739D01*
X191304968Y-210782334D01*
X191401139Y-210576096D01*
X191460035Y-210356292D01*
X191479868Y-210129600D01*
X191460035Y-209902908D01*
X191401139Y-209683104D01*
X191304968Y-209476866D01*
X191174447Y-209290461D01*
X191013539Y-209129553D01*
X190827134Y-208999032D01*
X190822156Y-208996711D01*
X190822153Y-208996709D01*
X190625878Y-208905184D01*
X190625876Y-208905183D01*
X190620896Y-208902861D01*
X190615588Y-208901439D01*
X190615586Y-208901438D01*
X190406407Y-208845389D01*
X190406405Y-208845389D01*
X190401092Y-208843965D01*
X190302098Y-208835304D01*
X190233908Y-208829338D01*
X190233901Y-208829338D01*
X190231184Y-208829100D01*
X190117616Y-208829100D01*
X190114899Y-208829338D01*
X190114892Y-208829338D01*
X190046702Y-208835304D01*
X189947708Y-208843965D01*
X189942395Y-208845389D01*
X189942393Y-208845389D01*
X189733214Y-208901438D01*
X189733212Y-208901439D01*
X189727904Y-208902861D01*
X189722924Y-208905183D01*
X189722922Y-208905184D01*
X189526647Y-208996709D01*
X189526644Y-208996711D01*
X189521666Y-208999032D01*
X189335261Y-209129553D01*
X189174353Y-209290461D01*
X189043832Y-209476866D01*
X188947661Y-209683104D01*
X188888765Y-209902908D01*
X188868932Y-210129600D01*
X124454400Y-210129600D01*
X124454400Y-202534000D01*
X124474402Y-202465879D01*
X124528058Y-202419386D01*
X124580400Y-202408000D01*
X197828400Y-202408000D01*
X197896521Y-202428002D01*
G37*
%TD.AperFunction*%
%TD*%
M02*
