%TF.GenerationSoftware,KiCad,Pcbnew,(6.0.10-0)*%
%TF.CreationDate,2023-04-17T19:00:21-04:00*%
%TF.ProjectId,my_anode,6d795f61-6e6f-4646-952e-6b696361645f,rev?*%
%TF.SameCoordinates,Original*%
%TF.FileFunction,Legend,Top*%
%TF.FilePolarity,Positive*%
%FSLAX46Y46*%
G04 Gerber Fmt 4.6, Leading zero omitted, Abs format (unit mm)*
G04 Created by KiCad (PCBNEW (6.0.10-0)) date 2023-04-17 19:00:21*
%MOMM*%
%LPD*%
G01*
G04 APERTURE LIST*
%ADD10C,0.150000*%
%ADD11C,0.120000*%
G04 APERTURE END LIST*
D10*
%TO.C,R20*%
X253942780Y-225382057D02*
X253466590Y-225715390D01*
X253942780Y-225953485D02*
X252942780Y-225953485D01*
X252942780Y-225572533D01*
X252990400Y-225477295D01*
X253038019Y-225429676D01*
X253133257Y-225382057D01*
X253276114Y-225382057D01*
X253371352Y-225429676D01*
X253418971Y-225477295D01*
X253466590Y-225572533D01*
X253466590Y-225953485D01*
X253038019Y-225001104D02*
X252990400Y-224953485D01*
X252942780Y-224858247D01*
X252942780Y-224620152D01*
X252990400Y-224524914D01*
X253038019Y-224477295D01*
X253133257Y-224429676D01*
X253228495Y-224429676D01*
X253371352Y-224477295D01*
X253942780Y-225048723D01*
X253942780Y-224429676D01*
X252942780Y-223810628D02*
X252942780Y-223715390D01*
X252990400Y-223620152D01*
X253038019Y-223572533D01*
X253133257Y-223524914D01*
X253323733Y-223477295D01*
X253561828Y-223477295D01*
X253752304Y-223524914D01*
X253847542Y-223572533D01*
X253895161Y-223620152D01*
X253942780Y-223715390D01*
X253942780Y-223810628D01*
X253895161Y-223905866D01*
X253847542Y-223953485D01*
X253752304Y-224001104D01*
X253561828Y-224048723D01*
X253323733Y-224048723D01*
X253133257Y-224001104D01*
X253038019Y-223953485D01*
X252990400Y-223905866D01*
X252942780Y-223810628D01*
%TO.C,R23*%
X238705980Y-138336257D02*
X238229790Y-138669590D01*
X238705980Y-138907685D02*
X237705980Y-138907685D01*
X237705980Y-138526733D01*
X237753600Y-138431495D01*
X237801219Y-138383876D01*
X237896457Y-138336257D01*
X238039314Y-138336257D01*
X238134552Y-138383876D01*
X238182171Y-138431495D01*
X238229790Y-138526733D01*
X238229790Y-138907685D01*
X237801219Y-137955304D02*
X237753600Y-137907685D01*
X237705980Y-137812447D01*
X237705980Y-137574352D01*
X237753600Y-137479114D01*
X237801219Y-137431495D01*
X237896457Y-137383876D01*
X237991695Y-137383876D01*
X238134552Y-137431495D01*
X238705980Y-138002923D01*
X238705980Y-137383876D01*
X237705980Y-137050542D02*
X237705980Y-136431495D01*
X238086933Y-136764828D01*
X238086933Y-136621971D01*
X238134552Y-136526733D01*
X238182171Y-136479114D01*
X238277409Y-136431495D01*
X238515504Y-136431495D01*
X238610742Y-136479114D01*
X238658361Y-136526733D01*
X238705980Y-136621971D01*
X238705980Y-136907685D01*
X238658361Y-137002923D01*
X238610742Y-137050542D01*
%TO.C,R21*%
X229815980Y-240876057D02*
X229339790Y-241209390D01*
X229815980Y-241447485D02*
X228815980Y-241447485D01*
X228815980Y-241066533D01*
X228863600Y-240971295D01*
X228911219Y-240923676D01*
X229006457Y-240876057D01*
X229149314Y-240876057D01*
X229244552Y-240923676D01*
X229292171Y-240971295D01*
X229339790Y-241066533D01*
X229339790Y-241447485D01*
X228911219Y-240495104D02*
X228863600Y-240447485D01*
X228815980Y-240352247D01*
X228815980Y-240114152D01*
X228863600Y-240018914D01*
X228911219Y-239971295D01*
X229006457Y-239923676D01*
X229101695Y-239923676D01*
X229244552Y-239971295D01*
X229815980Y-240542723D01*
X229815980Y-239923676D01*
X229815980Y-238971295D02*
X229815980Y-239542723D01*
X229815980Y-239257009D02*
X228815980Y-239257009D01*
X228958838Y-239352247D01*
X229054076Y-239447485D01*
X229101695Y-239542723D01*
%TO.C,C2*%
X239482333Y-145975342D02*
X239434714Y-146022961D01*
X239291857Y-146070580D01*
X239196619Y-146070580D01*
X239053761Y-146022961D01*
X238958523Y-145927723D01*
X238910904Y-145832485D01*
X238863285Y-145642009D01*
X238863285Y-145499152D01*
X238910904Y-145308676D01*
X238958523Y-145213438D01*
X239053761Y-145118200D01*
X239196619Y-145070580D01*
X239291857Y-145070580D01*
X239434714Y-145118200D01*
X239482333Y-145165819D01*
X239863285Y-145165819D02*
X239910904Y-145118200D01*
X240006142Y-145070580D01*
X240244238Y-145070580D01*
X240339476Y-145118200D01*
X240387095Y-145165819D01*
X240434714Y-145261057D01*
X240434714Y-145356295D01*
X240387095Y-145499152D01*
X239815666Y-146070580D01*
X240434714Y-146070580D01*
%TO.C,REF\u002A\u002A*%
X290080866Y-156763980D02*
X289747533Y-156287790D01*
X289509438Y-156763980D02*
X289509438Y-155763980D01*
X289890390Y-155763980D01*
X289985628Y-155811600D01*
X290033247Y-155859219D01*
X290080866Y-155954457D01*
X290080866Y-156097314D01*
X290033247Y-156192552D01*
X289985628Y-156240171D01*
X289890390Y-156287790D01*
X289509438Y-156287790D01*
X290509438Y-156240171D02*
X290842771Y-156240171D01*
X290985628Y-156763980D02*
X290509438Y-156763980D01*
X290509438Y-155763980D01*
X290985628Y-155763980D01*
X291747533Y-156240171D02*
X291414200Y-156240171D01*
X291414200Y-156763980D02*
X291414200Y-155763980D01*
X291890390Y-155763980D01*
X292414200Y-155763980D02*
X292414200Y-156002076D01*
X292176104Y-155906838D02*
X292414200Y-156002076D01*
X292652295Y-155906838D01*
X292271342Y-156192552D02*
X292414200Y-156002076D01*
X292557057Y-156192552D01*
X293176104Y-155763980D02*
X293176104Y-156002076D01*
X292938009Y-155906838D02*
X293176104Y-156002076D01*
X293414200Y-155906838D01*
X293033247Y-156192552D02*
X293176104Y-156002076D01*
X293318961Y-156192552D01*
X159677466Y-116479180D02*
X159344133Y-116002990D01*
X159106038Y-116479180D02*
X159106038Y-115479180D01*
X159486990Y-115479180D01*
X159582228Y-115526800D01*
X159629847Y-115574419D01*
X159677466Y-115669657D01*
X159677466Y-115812514D01*
X159629847Y-115907752D01*
X159582228Y-115955371D01*
X159486990Y-116002990D01*
X159106038Y-116002990D01*
X160106038Y-115955371D02*
X160439371Y-115955371D01*
X160582228Y-116479180D02*
X160106038Y-116479180D01*
X160106038Y-115479180D01*
X160582228Y-115479180D01*
X161344133Y-115955371D02*
X161010800Y-115955371D01*
X161010800Y-116479180D02*
X161010800Y-115479180D01*
X161486990Y-115479180D01*
X162010800Y-115479180D02*
X162010800Y-115717276D01*
X161772704Y-115622038D02*
X162010800Y-115717276D01*
X162248895Y-115622038D01*
X161867942Y-115907752D02*
X162010800Y-115717276D01*
X162153657Y-115907752D01*
X162772704Y-115479180D02*
X162772704Y-115717276D01*
X162534609Y-115622038D02*
X162772704Y-115717276D01*
X163010800Y-115622038D01*
X162629847Y-115907752D02*
X162772704Y-115717276D01*
X162915561Y-115907752D01*
%TO.C,R26*%
X180215780Y-142324057D02*
X179739590Y-142657390D01*
X180215780Y-142895485D02*
X179215780Y-142895485D01*
X179215780Y-142514533D01*
X179263400Y-142419295D01*
X179311019Y-142371676D01*
X179406257Y-142324057D01*
X179549114Y-142324057D01*
X179644352Y-142371676D01*
X179691971Y-142419295D01*
X179739590Y-142514533D01*
X179739590Y-142895485D01*
X179311019Y-141943104D02*
X179263400Y-141895485D01*
X179215780Y-141800247D01*
X179215780Y-141562152D01*
X179263400Y-141466914D01*
X179311019Y-141419295D01*
X179406257Y-141371676D01*
X179501495Y-141371676D01*
X179644352Y-141419295D01*
X180215780Y-141990723D01*
X180215780Y-141371676D01*
X179215780Y-140514533D02*
X179215780Y-140705009D01*
X179263400Y-140800247D01*
X179311019Y-140847866D01*
X179453876Y-140943104D01*
X179644352Y-140990723D01*
X180025304Y-140990723D01*
X180120542Y-140943104D01*
X180168161Y-140895485D01*
X180215780Y-140800247D01*
X180215780Y-140609771D01*
X180168161Y-140514533D01*
X180120542Y-140466914D01*
X180025304Y-140419295D01*
X179787209Y-140419295D01*
X179691971Y-140466914D01*
X179644352Y-140514533D01*
X179596733Y-140609771D01*
X179596733Y-140800247D01*
X179644352Y-140895485D01*
X179691971Y-140943104D01*
X179787209Y-140990723D01*
%TO.C,R22*%
X216700380Y-256776457D02*
X216224190Y-257109790D01*
X216700380Y-257347885D02*
X215700380Y-257347885D01*
X215700380Y-256966933D01*
X215748000Y-256871695D01*
X215795619Y-256824076D01*
X215890857Y-256776457D01*
X216033714Y-256776457D01*
X216128952Y-256824076D01*
X216176571Y-256871695D01*
X216224190Y-256966933D01*
X216224190Y-257347885D01*
X215795619Y-256395504D02*
X215748000Y-256347885D01*
X215700380Y-256252647D01*
X215700380Y-256014552D01*
X215748000Y-255919314D01*
X215795619Y-255871695D01*
X215890857Y-255824076D01*
X215986095Y-255824076D01*
X216128952Y-255871695D01*
X216700380Y-256443123D01*
X216700380Y-255824076D01*
X215795619Y-255443123D02*
X215748000Y-255395504D01*
X215700380Y-255300266D01*
X215700380Y-255062171D01*
X215748000Y-254966933D01*
X215795619Y-254919314D01*
X215890857Y-254871695D01*
X215986095Y-254871695D01*
X216128952Y-254919314D01*
X216700380Y-255490742D01*
X216700380Y-254871695D01*
%TO.C,R7*%
X164791980Y-173394666D02*
X164315790Y-173728000D01*
X164791980Y-173966095D02*
X163791980Y-173966095D01*
X163791980Y-173585142D01*
X163839600Y-173489904D01*
X163887219Y-173442285D01*
X163982457Y-173394666D01*
X164125314Y-173394666D01*
X164220552Y-173442285D01*
X164268171Y-173489904D01*
X164315790Y-173585142D01*
X164315790Y-173966095D01*
X163791980Y-173061333D02*
X163791980Y-172394666D01*
X164791980Y-172823238D01*
%TO.C,R17*%
X245049342Y-223564380D02*
X244716009Y-223088190D01*
X244477914Y-223564380D02*
X244477914Y-222564380D01*
X244858866Y-222564380D01*
X244954104Y-222612000D01*
X245001723Y-222659619D01*
X245049342Y-222754857D01*
X245049342Y-222897714D01*
X245001723Y-222992952D01*
X244954104Y-223040571D01*
X244858866Y-223088190D01*
X244477914Y-223088190D01*
X246001723Y-223564380D02*
X245430295Y-223564380D01*
X245716009Y-223564380D02*
X245716009Y-222564380D01*
X245620771Y-222707238D01*
X245525533Y-222802476D01*
X245430295Y-222850095D01*
X246335057Y-222564380D02*
X247001723Y-222564380D01*
X246573152Y-223564380D01*
%TO.C,R3*%
X247535133Y-151555580D02*
X247201800Y-151079390D01*
X246963704Y-151555580D02*
X246963704Y-150555580D01*
X247344657Y-150555580D01*
X247439895Y-150603200D01*
X247487514Y-150650819D01*
X247535133Y-150746057D01*
X247535133Y-150888914D01*
X247487514Y-150984152D01*
X247439895Y-151031771D01*
X247344657Y-151079390D01*
X246963704Y-151079390D01*
X247868466Y-150555580D02*
X248487514Y-150555580D01*
X248154180Y-150936533D01*
X248297038Y-150936533D01*
X248392276Y-150984152D01*
X248439895Y-151031771D01*
X248487514Y-151127009D01*
X248487514Y-151365104D01*
X248439895Y-151460342D01*
X248392276Y-151507961D01*
X248297038Y-151555580D01*
X248011323Y-151555580D01*
X247916085Y-151507961D01*
X247868466Y-151460342D01*
%TO.C,D1*%
X243642095Y-162564819D02*
X243642095Y-163564819D01*
X243404000Y-163564819D01*
X243261142Y-163517200D01*
X243165904Y-163421961D01*
X243118285Y-163326723D01*
X243070666Y-163136247D01*
X243070666Y-162993390D01*
X243118285Y-162802914D01*
X243165904Y-162707676D01*
X243261142Y-162612438D01*
X243404000Y-162564819D01*
X243642095Y-162564819D01*
X242118285Y-162564819D02*
X242689714Y-162564819D01*
X242404000Y-162564819D02*
X242404000Y-163564819D01*
X242499238Y-163421961D01*
X242594476Y-163326723D01*
X242689714Y-163279104D01*
%TO.C,C8*%
X244994133Y-219516742D02*
X244946514Y-219564361D01*
X244803657Y-219611980D01*
X244708419Y-219611980D01*
X244565561Y-219564361D01*
X244470323Y-219469123D01*
X244422704Y-219373885D01*
X244375085Y-219183409D01*
X244375085Y-219040552D01*
X244422704Y-218850076D01*
X244470323Y-218754838D01*
X244565561Y-218659600D01*
X244708419Y-218611980D01*
X244803657Y-218611980D01*
X244946514Y-218659600D01*
X244994133Y-218707219D01*
X245565561Y-219040552D02*
X245470323Y-218992933D01*
X245422704Y-218945314D01*
X245375085Y-218850076D01*
X245375085Y-218802457D01*
X245422704Y-218707219D01*
X245470323Y-218659600D01*
X245565561Y-218611980D01*
X245756038Y-218611980D01*
X245851276Y-218659600D01*
X245898895Y-218707219D01*
X245946514Y-218802457D01*
X245946514Y-218850076D01*
X245898895Y-218945314D01*
X245851276Y-218992933D01*
X245756038Y-219040552D01*
X245565561Y-219040552D01*
X245470323Y-219088171D01*
X245422704Y-219135790D01*
X245375085Y-219231028D01*
X245375085Y-219421504D01*
X245422704Y-219516742D01*
X245470323Y-219564361D01*
X245565561Y-219611980D01*
X245756038Y-219611980D01*
X245851276Y-219564361D01*
X245898895Y-219516742D01*
X245946514Y-219421504D01*
X245946514Y-219231028D01*
X245898895Y-219135790D01*
X245851276Y-219088171D01*
X245756038Y-219040552D01*
%TO.C,MOUNTING*%
X186626780Y-207381980D02*
X186626780Y-206381980D01*
X186960114Y-207096266D01*
X187293447Y-206381980D01*
X187293447Y-207381980D01*
X187960114Y-206381980D02*
X188150590Y-206381980D01*
X188245828Y-206429600D01*
X188341066Y-206524838D01*
X188388685Y-206715314D01*
X188388685Y-207048647D01*
X188341066Y-207239123D01*
X188245828Y-207334361D01*
X188150590Y-207381980D01*
X187960114Y-207381980D01*
X187864876Y-207334361D01*
X187769638Y-207239123D01*
X187722019Y-207048647D01*
X187722019Y-206715314D01*
X187769638Y-206524838D01*
X187864876Y-206429600D01*
X187960114Y-206381980D01*
X188817257Y-206381980D02*
X188817257Y-207191504D01*
X188864876Y-207286742D01*
X188912495Y-207334361D01*
X189007733Y-207381980D01*
X189198209Y-207381980D01*
X189293447Y-207334361D01*
X189341066Y-207286742D01*
X189388685Y-207191504D01*
X189388685Y-206381980D01*
X189864876Y-207381980D02*
X189864876Y-206381980D01*
X190436304Y-207381980D01*
X190436304Y-206381980D01*
X190769638Y-206381980D02*
X191341066Y-206381980D01*
X191055352Y-207381980D02*
X191055352Y-206381980D01*
X191674400Y-207381980D02*
X191674400Y-206381980D01*
X192150590Y-207381980D02*
X192150590Y-206381980D01*
X192722019Y-207381980D01*
X192722019Y-206381980D01*
X193722019Y-206429600D02*
X193626780Y-206381980D01*
X193483923Y-206381980D01*
X193341066Y-206429600D01*
X193245828Y-206524838D01*
X193198209Y-206620076D01*
X193150590Y-206810552D01*
X193150590Y-206953409D01*
X193198209Y-207143885D01*
X193245828Y-207239123D01*
X193341066Y-207334361D01*
X193483923Y-207381980D01*
X193579161Y-207381980D01*
X193722019Y-207334361D01*
X193769638Y-207286742D01*
X193769638Y-206953409D01*
X193579161Y-206953409D01*
%TO.C,R18*%
X229558780Y-245219457D02*
X229082590Y-245552790D01*
X229558780Y-245790885D02*
X228558780Y-245790885D01*
X228558780Y-245409933D01*
X228606400Y-245314695D01*
X228654019Y-245267076D01*
X228749257Y-245219457D01*
X228892114Y-245219457D01*
X228987352Y-245267076D01*
X229034971Y-245314695D01*
X229082590Y-245409933D01*
X229082590Y-245790885D01*
X229558780Y-244267076D02*
X229558780Y-244838504D01*
X229558780Y-244552790D02*
X228558780Y-244552790D01*
X228701638Y-244648028D01*
X228796876Y-244743266D01*
X228844495Y-244838504D01*
X228987352Y-243695647D02*
X228939733Y-243790885D01*
X228892114Y-243838504D01*
X228796876Y-243886123D01*
X228749257Y-243886123D01*
X228654019Y-243838504D01*
X228606400Y-243790885D01*
X228558780Y-243695647D01*
X228558780Y-243505171D01*
X228606400Y-243409933D01*
X228654019Y-243362314D01*
X228749257Y-243314695D01*
X228796876Y-243314695D01*
X228892114Y-243362314D01*
X228939733Y-243409933D01*
X228987352Y-243505171D01*
X228987352Y-243695647D01*
X229034971Y-243790885D01*
X229082590Y-243838504D01*
X229177828Y-243886123D01*
X229368304Y-243886123D01*
X229463542Y-243838504D01*
X229511161Y-243790885D01*
X229558780Y-243695647D01*
X229558780Y-243505171D01*
X229511161Y-243409933D01*
X229463542Y-243362314D01*
X229368304Y-243314695D01*
X229177828Y-243314695D01*
X229082590Y-243362314D01*
X229034971Y-243409933D01*
X228987352Y-243505171D01*
%TO.C,D3*%
X160094704Y-233370380D02*
X160094704Y-232370380D01*
X160332800Y-232370380D01*
X160475657Y-232418000D01*
X160570895Y-232513238D01*
X160618514Y-232608476D01*
X160666133Y-232798952D01*
X160666133Y-232941809D01*
X160618514Y-233132285D01*
X160570895Y-233227523D01*
X160475657Y-233322761D01*
X160332800Y-233370380D01*
X160094704Y-233370380D01*
X160999466Y-232370380D02*
X161618514Y-232370380D01*
X161285180Y-232751333D01*
X161428038Y-232751333D01*
X161523276Y-232798952D01*
X161570895Y-232846571D01*
X161618514Y-232941809D01*
X161618514Y-233179904D01*
X161570895Y-233275142D01*
X161523276Y-233322761D01*
X161428038Y-233370380D01*
X161142323Y-233370380D01*
X161047085Y-233322761D01*
X160999466Y-233275142D01*
%TO.C,R12*%
X160677180Y-221648257D02*
X160200990Y-221981590D01*
X160677180Y-222219685D02*
X159677180Y-222219685D01*
X159677180Y-221838733D01*
X159724800Y-221743495D01*
X159772419Y-221695876D01*
X159867657Y-221648257D01*
X160010514Y-221648257D01*
X160105752Y-221695876D01*
X160153371Y-221743495D01*
X160200990Y-221838733D01*
X160200990Y-222219685D01*
X160677180Y-220695876D02*
X160677180Y-221267304D01*
X160677180Y-220981590D02*
X159677180Y-220981590D01*
X159820038Y-221076828D01*
X159915276Y-221172066D01*
X159962895Y-221267304D01*
X159772419Y-220314923D02*
X159724800Y-220267304D01*
X159677180Y-220172066D01*
X159677180Y-219933971D01*
X159724800Y-219838733D01*
X159772419Y-219791114D01*
X159867657Y-219743495D01*
X159962895Y-219743495D01*
X160105752Y-219791114D01*
X160677180Y-220362542D01*
X160677180Y-219743495D01*
%TO.C,C6*%
X160470342Y-257087666D02*
X160517961Y-257135285D01*
X160565580Y-257278142D01*
X160565580Y-257373380D01*
X160517961Y-257516238D01*
X160422723Y-257611476D01*
X160327485Y-257659095D01*
X160137009Y-257706714D01*
X159994152Y-257706714D01*
X159803676Y-257659095D01*
X159708438Y-257611476D01*
X159613200Y-257516238D01*
X159565580Y-257373380D01*
X159565580Y-257278142D01*
X159613200Y-257135285D01*
X159660819Y-257087666D01*
X159565580Y-256230523D02*
X159565580Y-256421000D01*
X159613200Y-256516238D01*
X159660819Y-256563857D01*
X159803676Y-256659095D01*
X159994152Y-256706714D01*
X160375104Y-256706714D01*
X160470342Y-256659095D01*
X160517961Y-256611476D01*
X160565580Y-256516238D01*
X160565580Y-256325761D01*
X160517961Y-256230523D01*
X160470342Y-256182904D01*
X160375104Y-256135285D01*
X160137009Y-256135285D01*
X160041771Y-256182904D01*
X159994152Y-256230523D01*
X159946533Y-256325761D01*
X159946533Y-256516238D01*
X159994152Y-256611476D01*
X160041771Y-256659095D01*
X160137009Y-256706714D01*
%TO.C,R10*%
X162816142Y-147402980D02*
X162482809Y-146926790D01*
X162244714Y-147402980D02*
X162244714Y-146402980D01*
X162625666Y-146402980D01*
X162720904Y-146450600D01*
X162768523Y-146498219D01*
X162816142Y-146593457D01*
X162816142Y-146736314D01*
X162768523Y-146831552D01*
X162720904Y-146879171D01*
X162625666Y-146926790D01*
X162244714Y-146926790D01*
X163768523Y-147402980D02*
X163197095Y-147402980D01*
X163482809Y-147402980D02*
X163482809Y-146402980D01*
X163387571Y-146545838D01*
X163292333Y-146641076D01*
X163197095Y-146688695D01*
X164387571Y-146402980D02*
X164482809Y-146402980D01*
X164578047Y-146450600D01*
X164625666Y-146498219D01*
X164673285Y-146593457D01*
X164720904Y-146783933D01*
X164720904Y-147022028D01*
X164673285Y-147212504D01*
X164625666Y-147307742D01*
X164578047Y-147355361D01*
X164482809Y-147402980D01*
X164387571Y-147402980D01*
X164292333Y-147355361D01*
X164244714Y-147307742D01*
X164197095Y-147212504D01*
X164149476Y-147022028D01*
X164149476Y-146783933D01*
X164197095Y-146593457D01*
X164244714Y-146498219D01*
X164292333Y-146450600D01*
X164387571Y-146402980D01*
%TO.C,R25*%
X191736742Y-135629580D02*
X191403409Y-135153390D01*
X191165314Y-135629580D02*
X191165314Y-134629580D01*
X191546266Y-134629580D01*
X191641504Y-134677200D01*
X191689123Y-134724819D01*
X191736742Y-134820057D01*
X191736742Y-134962914D01*
X191689123Y-135058152D01*
X191641504Y-135105771D01*
X191546266Y-135153390D01*
X191165314Y-135153390D01*
X192117695Y-134724819D02*
X192165314Y-134677200D01*
X192260552Y-134629580D01*
X192498647Y-134629580D01*
X192593885Y-134677200D01*
X192641504Y-134724819D01*
X192689123Y-134820057D01*
X192689123Y-134915295D01*
X192641504Y-135058152D01*
X192070076Y-135629580D01*
X192689123Y-135629580D01*
X193593885Y-134629580D02*
X193117695Y-134629580D01*
X193070076Y-135105771D01*
X193117695Y-135058152D01*
X193212933Y-135010533D01*
X193451028Y-135010533D01*
X193546266Y-135058152D01*
X193593885Y-135105771D01*
X193641504Y-135201009D01*
X193641504Y-135439104D01*
X193593885Y-135534342D01*
X193546266Y-135581961D01*
X193451028Y-135629580D01*
X193212933Y-135629580D01*
X193117695Y-135581961D01*
X193070076Y-135534342D01*
%TO.C,R11*%
X158435342Y-217674780D02*
X158102009Y-217198590D01*
X157863914Y-217674780D02*
X157863914Y-216674780D01*
X158244866Y-216674780D01*
X158340104Y-216722400D01*
X158387723Y-216770019D01*
X158435342Y-216865257D01*
X158435342Y-217008114D01*
X158387723Y-217103352D01*
X158340104Y-217150971D01*
X158244866Y-217198590D01*
X157863914Y-217198590D01*
X159387723Y-217674780D02*
X158816295Y-217674780D01*
X159102009Y-217674780D02*
X159102009Y-216674780D01*
X159006771Y-216817638D01*
X158911533Y-216912876D01*
X158816295Y-216960495D01*
X160340104Y-217674780D02*
X159768676Y-217674780D01*
X160054390Y-217674780D02*
X160054390Y-216674780D01*
X159959152Y-216817638D01*
X159863914Y-216912876D01*
X159768676Y-216960495D01*
%TO.C,R14*%
X155517780Y-259799057D02*
X155041590Y-260132390D01*
X155517780Y-260370485D02*
X154517780Y-260370485D01*
X154517780Y-259989533D01*
X154565400Y-259894295D01*
X154613019Y-259846676D01*
X154708257Y-259799057D01*
X154851114Y-259799057D01*
X154946352Y-259846676D01*
X154993971Y-259894295D01*
X155041590Y-259989533D01*
X155041590Y-260370485D01*
X155517780Y-258846676D02*
X155517780Y-259418104D01*
X155517780Y-259132390D02*
X154517780Y-259132390D01*
X154660638Y-259227628D01*
X154755876Y-259322866D01*
X154803495Y-259418104D01*
X154851114Y-257989533D02*
X155517780Y-257989533D01*
X154470161Y-258227628D02*
X155184447Y-258465723D01*
X155184447Y-257846676D01*
%TO.C,C1*%
X233716533Y-161359342D02*
X233668914Y-161406961D01*
X233526057Y-161454580D01*
X233430819Y-161454580D01*
X233287961Y-161406961D01*
X233192723Y-161311723D01*
X233145104Y-161216485D01*
X233097485Y-161026009D01*
X233097485Y-160883152D01*
X233145104Y-160692676D01*
X233192723Y-160597438D01*
X233287961Y-160502200D01*
X233430819Y-160454580D01*
X233526057Y-160454580D01*
X233668914Y-160502200D01*
X233716533Y-160549819D01*
X234668914Y-161454580D02*
X234097485Y-161454580D01*
X234383200Y-161454580D02*
X234383200Y-160454580D01*
X234287961Y-160597438D01*
X234192723Y-160692676D01*
X234097485Y-160740295D01*
%TO.C,R2*%
X231379733Y-167506580D02*
X231046400Y-167030390D01*
X230808304Y-167506580D02*
X230808304Y-166506580D01*
X231189257Y-166506580D01*
X231284495Y-166554200D01*
X231332114Y-166601819D01*
X231379733Y-166697057D01*
X231379733Y-166839914D01*
X231332114Y-166935152D01*
X231284495Y-166982771D01*
X231189257Y-167030390D01*
X230808304Y-167030390D01*
X231760685Y-166601819D02*
X231808304Y-166554200D01*
X231903542Y-166506580D01*
X232141638Y-166506580D01*
X232236876Y-166554200D01*
X232284495Y-166601819D01*
X232332114Y-166697057D01*
X232332114Y-166792295D01*
X232284495Y-166935152D01*
X231713066Y-167506580D01*
X232332114Y-167506580D01*
%TO.C,C5*%
X167472142Y-221756266D02*
X167519761Y-221803885D01*
X167567380Y-221946742D01*
X167567380Y-222041980D01*
X167519761Y-222184838D01*
X167424523Y-222280076D01*
X167329285Y-222327695D01*
X167138809Y-222375314D01*
X166995952Y-222375314D01*
X166805476Y-222327695D01*
X166710238Y-222280076D01*
X166615000Y-222184838D01*
X166567380Y-222041980D01*
X166567380Y-221946742D01*
X166615000Y-221803885D01*
X166662619Y-221756266D01*
X166567380Y-220851504D02*
X166567380Y-221327695D01*
X167043571Y-221375314D01*
X166995952Y-221327695D01*
X166948333Y-221232457D01*
X166948333Y-220994361D01*
X166995952Y-220899123D01*
X167043571Y-220851504D01*
X167138809Y-220803885D01*
X167376904Y-220803885D01*
X167472142Y-220851504D01*
X167519761Y-220899123D01*
X167567380Y-220994361D01*
X167567380Y-221232457D01*
X167519761Y-221327695D01*
X167472142Y-221375314D01*
%TO.C,C4*%
X160056533Y-139083542D02*
X160008914Y-139131161D01*
X159866057Y-139178780D01*
X159770819Y-139178780D01*
X159627961Y-139131161D01*
X159532723Y-139035923D01*
X159485104Y-138940685D01*
X159437485Y-138750209D01*
X159437485Y-138607352D01*
X159485104Y-138416876D01*
X159532723Y-138321638D01*
X159627961Y-138226400D01*
X159770819Y-138178780D01*
X159866057Y-138178780D01*
X160008914Y-138226400D01*
X160056533Y-138274019D01*
X160913676Y-138512114D02*
X160913676Y-139178780D01*
X160675580Y-138131161D02*
X160437485Y-138845447D01*
X161056533Y-138845447D01*
%TO.C,R28*%
X194754780Y-257309857D02*
X194278590Y-257643190D01*
X194754780Y-257881285D02*
X193754780Y-257881285D01*
X193754780Y-257500333D01*
X193802400Y-257405095D01*
X193850019Y-257357476D01*
X193945257Y-257309857D01*
X194088114Y-257309857D01*
X194183352Y-257357476D01*
X194230971Y-257405095D01*
X194278590Y-257500333D01*
X194278590Y-257881285D01*
X193850019Y-256928904D02*
X193802400Y-256881285D01*
X193754780Y-256786047D01*
X193754780Y-256547952D01*
X193802400Y-256452714D01*
X193850019Y-256405095D01*
X193945257Y-256357476D01*
X194040495Y-256357476D01*
X194183352Y-256405095D01*
X194754780Y-256976523D01*
X194754780Y-256357476D01*
X194183352Y-255786047D02*
X194135733Y-255881285D01*
X194088114Y-255928904D01*
X193992876Y-255976523D01*
X193945257Y-255976523D01*
X193850019Y-255928904D01*
X193802400Y-255881285D01*
X193754780Y-255786047D01*
X193754780Y-255595571D01*
X193802400Y-255500333D01*
X193850019Y-255452714D01*
X193945257Y-255405095D01*
X193992876Y-255405095D01*
X194088114Y-255452714D01*
X194135733Y-255500333D01*
X194183352Y-255595571D01*
X194183352Y-255786047D01*
X194230971Y-255881285D01*
X194278590Y-255928904D01*
X194373828Y-255976523D01*
X194564304Y-255976523D01*
X194659542Y-255928904D01*
X194707161Y-255881285D01*
X194754780Y-255786047D01*
X194754780Y-255595571D01*
X194707161Y-255500333D01*
X194659542Y-255452714D01*
X194564304Y-255405095D01*
X194373828Y-255405095D01*
X194278590Y-255452714D01*
X194230971Y-255500333D01*
X194183352Y-255595571D01*
%TO.C,R24*%
X218010980Y-142654257D02*
X217534790Y-142987590D01*
X218010980Y-143225685D02*
X217010980Y-143225685D01*
X217010980Y-142844733D01*
X217058600Y-142749495D01*
X217106219Y-142701876D01*
X217201457Y-142654257D01*
X217344314Y-142654257D01*
X217439552Y-142701876D01*
X217487171Y-142749495D01*
X217534790Y-142844733D01*
X217534790Y-143225685D01*
X217106219Y-142273304D02*
X217058600Y-142225685D01*
X217010980Y-142130447D01*
X217010980Y-141892352D01*
X217058600Y-141797114D01*
X217106219Y-141749495D01*
X217201457Y-141701876D01*
X217296695Y-141701876D01*
X217439552Y-141749495D01*
X218010980Y-142320923D01*
X218010980Y-141701876D01*
X217344314Y-140844733D02*
X218010980Y-140844733D01*
X216963361Y-141082828D02*
X217677647Y-141320923D01*
X217677647Y-140701876D01*
%TO.C,REF\u002A\u002A*%
X200427466Y-116479180D02*
X200094133Y-116002990D01*
X199856038Y-116479180D02*
X199856038Y-115479180D01*
X200236990Y-115479180D01*
X200332228Y-115526800D01*
X200379847Y-115574419D01*
X200427466Y-115669657D01*
X200427466Y-115812514D01*
X200379847Y-115907752D01*
X200332228Y-115955371D01*
X200236990Y-116002990D01*
X199856038Y-116002990D01*
X200856038Y-115955371D02*
X201189371Y-115955371D01*
X201332228Y-116479180D02*
X200856038Y-116479180D01*
X200856038Y-115479180D01*
X201332228Y-115479180D01*
X202094133Y-115955371D02*
X201760800Y-115955371D01*
X201760800Y-116479180D02*
X201760800Y-115479180D01*
X202236990Y-115479180D01*
X202760800Y-115479180D02*
X202760800Y-115717276D01*
X202522704Y-115622038D02*
X202760800Y-115717276D01*
X202998895Y-115622038D01*
X202617942Y-115907752D02*
X202760800Y-115717276D01*
X202903657Y-115907752D01*
X203522704Y-115479180D02*
X203522704Y-115717276D01*
X203284609Y-115622038D02*
X203522704Y-115717276D01*
X203760800Y-115622038D01*
X203379847Y-115907752D02*
X203522704Y-115717276D01*
X203665561Y-115907752D01*
X293535266Y-237688380D02*
X293201933Y-237212190D01*
X292963838Y-237688380D02*
X292963838Y-236688380D01*
X293344790Y-236688380D01*
X293440028Y-236736000D01*
X293487647Y-236783619D01*
X293535266Y-236878857D01*
X293535266Y-237021714D01*
X293487647Y-237116952D01*
X293440028Y-237164571D01*
X293344790Y-237212190D01*
X292963838Y-237212190D01*
X293963838Y-237164571D02*
X294297171Y-237164571D01*
X294440028Y-237688380D02*
X293963838Y-237688380D01*
X293963838Y-236688380D01*
X294440028Y-236688380D01*
X295201933Y-237164571D02*
X294868600Y-237164571D01*
X294868600Y-237688380D02*
X294868600Y-236688380D01*
X295344790Y-236688380D01*
X295868600Y-236688380D02*
X295868600Y-236926476D01*
X295630504Y-236831238D02*
X295868600Y-236926476D01*
X296106695Y-236831238D01*
X295725742Y-237116952D02*
X295868600Y-236926476D01*
X296011457Y-237116952D01*
X296630504Y-236688380D02*
X296630504Y-236926476D01*
X296392409Y-236831238D02*
X296630504Y-236926476D01*
X296868600Y-236831238D01*
X296487647Y-237116952D02*
X296630504Y-236926476D01*
X296773361Y-237116952D01*
%TO.C,R19*%
X254347742Y-244979780D02*
X254014409Y-244503590D01*
X253776314Y-244979780D02*
X253776314Y-243979780D01*
X254157266Y-243979780D01*
X254252504Y-244027400D01*
X254300123Y-244075019D01*
X254347742Y-244170257D01*
X254347742Y-244313114D01*
X254300123Y-244408352D01*
X254252504Y-244455971D01*
X254157266Y-244503590D01*
X253776314Y-244503590D01*
X255300123Y-244979780D02*
X254728695Y-244979780D01*
X255014409Y-244979780D02*
X255014409Y-243979780D01*
X254919171Y-244122638D01*
X254823933Y-244217876D01*
X254728695Y-244265495D01*
X255776314Y-244979780D02*
X255966790Y-244979780D01*
X256062028Y-244932161D01*
X256109647Y-244884542D01*
X256204885Y-244741685D01*
X256252504Y-244551209D01*
X256252504Y-244170257D01*
X256204885Y-244075019D01*
X256157266Y-244027400D01*
X256062028Y-243979780D01*
X255871552Y-243979780D01*
X255776314Y-244027400D01*
X255728695Y-244075019D01*
X255681076Y-244170257D01*
X255681076Y-244408352D01*
X255728695Y-244503590D01*
X255776314Y-244551209D01*
X255871552Y-244598828D01*
X256062028Y-244598828D01*
X256157266Y-244551209D01*
X256204885Y-244503590D01*
X256252504Y-244408352D01*
%TO.C,D4*%
X238102380Y-237938695D02*
X237102380Y-237938695D01*
X237102380Y-237700600D01*
X237150000Y-237557742D01*
X237245238Y-237462504D01*
X237340476Y-237414885D01*
X237530952Y-237367266D01*
X237673809Y-237367266D01*
X237864285Y-237414885D01*
X237959523Y-237462504D01*
X238054761Y-237557742D01*
X238102380Y-237700600D01*
X238102380Y-237938695D01*
X237435714Y-236510123D02*
X238102380Y-236510123D01*
X237054761Y-236748219D02*
X237769047Y-236986314D01*
X237769047Y-236367266D01*
%TO.C,D2*%
X165993819Y-155929104D02*
X166993819Y-155929104D01*
X166993819Y-156167200D01*
X166946200Y-156310057D01*
X166850961Y-156405295D01*
X166755723Y-156452914D01*
X166565247Y-156500533D01*
X166422390Y-156500533D01*
X166231914Y-156452914D01*
X166136676Y-156405295D01*
X166041438Y-156310057D01*
X165993819Y-156167200D01*
X165993819Y-155929104D01*
X166898580Y-156881485D02*
X166946200Y-156929104D01*
X166993819Y-157024342D01*
X166993819Y-157262438D01*
X166946200Y-157357676D01*
X166898580Y-157405295D01*
X166803342Y-157452914D01*
X166708104Y-157452914D01*
X166565247Y-157405295D01*
X165993819Y-156833866D01*
X165993819Y-157452914D01*
%TO.C,R1*%
X228484133Y-160750180D02*
X228150800Y-160273990D01*
X227912704Y-160750180D02*
X227912704Y-159750180D01*
X228293657Y-159750180D01*
X228388895Y-159797800D01*
X228436514Y-159845419D01*
X228484133Y-159940657D01*
X228484133Y-160083514D01*
X228436514Y-160178752D01*
X228388895Y-160226371D01*
X228293657Y-160273990D01*
X227912704Y-160273990D01*
X229436514Y-160750180D02*
X228865085Y-160750180D01*
X229150800Y-160750180D02*
X229150800Y-159750180D01*
X229055561Y-159893038D01*
X228960323Y-159988276D01*
X228865085Y-160035895D01*
%TO.C,R15*%
X167582780Y-260258257D02*
X167106590Y-260591590D01*
X167582780Y-260829685D02*
X166582780Y-260829685D01*
X166582780Y-260448733D01*
X166630400Y-260353495D01*
X166678019Y-260305876D01*
X166773257Y-260258257D01*
X166916114Y-260258257D01*
X167011352Y-260305876D01*
X167058971Y-260353495D01*
X167106590Y-260448733D01*
X167106590Y-260829685D01*
X167582780Y-259305876D02*
X167582780Y-259877304D01*
X167582780Y-259591590D02*
X166582780Y-259591590D01*
X166725638Y-259686828D01*
X166820876Y-259782066D01*
X166868495Y-259877304D01*
X166582780Y-258401114D02*
X166582780Y-258877304D01*
X167058971Y-258924923D01*
X167011352Y-258877304D01*
X166963733Y-258782066D01*
X166963733Y-258543971D01*
X167011352Y-258448733D01*
X167058971Y-258401114D01*
X167154209Y-258353495D01*
X167392304Y-258353495D01*
X167487542Y-258401114D01*
X167535161Y-258448733D01*
X167582780Y-258543971D01*
X167582780Y-258782066D01*
X167535161Y-258877304D01*
X167487542Y-258924923D01*
%TO.C,R9*%
X159940580Y-147588266D02*
X159464390Y-147921600D01*
X159940580Y-148159695D02*
X158940580Y-148159695D01*
X158940580Y-147778742D01*
X158988200Y-147683504D01*
X159035819Y-147635885D01*
X159131057Y-147588266D01*
X159273914Y-147588266D01*
X159369152Y-147635885D01*
X159416771Y-147683504D01*
X159464390Y-147778742D01*
X159464390Y-148159695D01*
X159940580Y-147112076D02*
X159940580Y-146921600D01*
X159892961Y-146826361D01*
X159845342Y-146778742D01*
X159702485Y-146683504D01*
X159512009Y-146635885D01*
X159131057Y-146635885D01*
X159035819Y-146683504D01*
X158988200Y-146731123D01*
X158940580Y-146826361D01*
X158940580Y-147016838D01*
X158988200Y-147112076D01*
X159035819Y-147159695D01*
X159131057Y-147207314D01*
X159369152Y-147207314D01*
X159464390Y-147159695D01*
X159512009Y-147112076D01*
X159559628Y-147016838D01*
X159559628Y-146826361D01*
X159512009Y-146731123D01*
X159464390Y-146683504D01*
X159369152Y-146635885D01*
%TO.C,R5*%
X241717533Y-145106980D02*
X241384200Y-144630790D01*
X241146104Y-145106980D02*
X241146104Y-144106980D01*
X241527057Y-144106980D01*
X241622295Y-144154600D01*
X241669914Y-144202219D01*
X241717533Y-144297457D01*
X241717533Y-144440314D01*
X241669914Y-144535552D01*
X241622295Y-144583171D01*
X241527057Y-144630790D01*
X241146104Y-144630790D01*
X242622295Y-144106980D02*
X242146104Y-144106980D01*
X242098485Y-144583171D01*
X242146104Y-144535552D01*
X242241342Y-144487933D01*
X242479438Y-144487933D01*
X242574676Y-144535552D01*
X242622295Y-144583171D01*
X242669914Y-144678409D01*
X242669914Y-144916504D01*
X242622295Y-145011742D01*
X242574676Y-145059361D01*
X242479438Y-145106980D01*
X242241342Y-145106980D01*
X242146104Y-145059361D01*
X242098485Y-145011742D01*
%TO.C,R8*%
X172299333Y-149193180D02*
X171966000Y-148716990D01*
X171727904Y-149193180D02*
X171727904Y-148193180D01*
X172108857Y-148193180D01*
X172204095Y-148240800D01*
X172251714Y-148288419D01*
X172299333Y-148383657D01*
X172299333Y-148526514D01*
X172251714Y-148621752D01*
X172204095Y-148669371D01*
X172108857Y-148716990D01*
X171727904Y-148716990D01*
X172870761Y-148621752D02*
X172775523Y-148574133D01*
X172727904Y-148526514D01*
X172680285Y-148431276D01*
X172680285Y-148383657D01*
X172727904Y-148288419D01*
X172775523Y-148240800D01*
X172870761Y-148193180D01*
X173061238Y-148193180D01*
X173156476Y-148240800D01*
X173204095Y-148288419D01*
X173251714Y-148383657D01*
X173251714Y-148431276D01*
X173204095Y-148526514D01*
X173156476Y-148574133D01*
X173061238Y-148621752D01*
X172870761Y-148621752D01*
X172775523Y-148669371D01*
X172727904Y-148716990D01*
X172680285Y-148812228D01*
X172680285Y-149002704D01*
X172727904Y-149097942D01*
X172775523Y-149145561D01*
X172870761Y-149193180D01*
X173061238Y-149193180D01*
X173156476Y-149145561D01*
X173204095Y-149097942D01*
X173251714Y-149002704D01*
X173251714Y-148812228D01*
X173204095Y-148716990D01*
X173156476Y-148669371D01*
X173061238Y-148621752D01*
%TO.C,R6*%
X168119380Y-168543266D02*
X167643190Y-168876600D01*
X168119380Y-169114695D02*
X167119380Y-169114695D01*
X167119380Y-168733742D01*
X167167000Y-168638504D01*
X167214619Y-168590885D01*
X167309857Y-168543266D01*
X167452714Y-168543266D01*
X167547952Y-168590885D01*
X167595571Y-168638504D01*
X167643190Y-168733742D01*
X167643190Y-169114695D01*
X167119380Y-167686123D02*
X167119380Y-167876600D01*
X167167000Y-167971838D01*
X167214619Y-168019457D01*
X167357476Y-168114695D01*
X167547952Y-168162314D01*
X167928904Y-168162314D01*
X168024142Y-168114695D01*
X168071761Y-168067076D01*
X168119380Y-167971838D01*
X168119380Y-167781361D01*
X168071761Y-167686123D01*
X168024142Y-167638504D01*
X167928904Y-167590885D01*
X167690809Y-167590885D01*
X167595571Y-167638504D01*
X167547952Y-167686123D01*
X167500333Y-167781361D01*
X167500333Y-167971838D01*
X167547952Y-168067076D01*
X167595571Y-168114695D01*
X167690809Y-168162314D01*
%TO.C,J3*%
X211578866Y-165238180D02*
X211578866Y-165952466D01*
X211531247Y-166095323D01*
X211436009Y-166190561D01*
X211293152Y-166238180D01*
X211197914Y-166238180D01*
X211959819Y-165238180D02*
X212578866Y-165238180D01*
X212245533Y-165619133D01*
X212388390Y-165619133D01*
X212483628Y-165666752D01*
X212531247Y-165714371D01*
X212578866Y-165809609D01*
X212578866Y-166047704D01*
X212531247Y-166142942D01*
X212483628Y-166190561D01*
X212388390Y-166238180D01*
X212102676Y-166238180D01*
X212007438Y-166190561D01*
X211959819Y-166142942D01*
X208496352Y-176823714D02*
X208496352Y-177490380D01*
X208258257Y-176442761D02*
X208020161Y-177157047D01*
X208639209Y-177157047D01*
X208924923Y-176490380D02*
X209543971Y-176490380D01*
X209210638Y-176871333D01*
X209353495Y-176871333D01*
X209448733Y-176918952D01*
X209496352Y-176966571D01*
X209543971Y-177061809D01*
X209543971Y-177299904D01*
X209496352Y-177395142D01*
X209448733Y-177442761D01*
X209353495Y-177490380D01*
X209067780Y-177490380D01*
X208972542Y-177442761D01*
X208924923Y-177395142D01*
X210163019Y-176490380D02*
X210258257Y-176490380D01*
X210353495Y-176538000D01*
X210401114Y-176585619D01*
X210448733Y-176680857D01*
X210496352Y-176871333D01*
X210496352Y-177109428D01*
X210448733Y-177299904D01*
X210401114Y-177395142D01*
X210353495Y-177442761D01*
X210258257Y-177490380D01*
X210163019Y-177490380D01*
X210067780Y-177442761D01*
X210020161Y-177395142D01*
X209972542Y-177299904D01*
X209924923Y-177109428D01*
X209924923Y-176871333D01*
X209972542Y-176680857D01*
X210020161Y-176585619D01*
X210067780Y-176538000D01*
X210163019Y-176490380D01*
X211353495Y-176823714D02*
X211353495Y-177490380D01*
X211115400Y-176442761D02*
X210877304Y-177157047D01*
X211496352Y-177157047D01*
X212353495Y-176490380D02*
X211877304Y-176490380D01*
X211829685Y-176966571D01*
X211877304Y-176918952D01*
X211972542Y-176871333D01*
X212210638Y-176871333D01*
X212305876Y-176918952D01*
X212353495Y-176966571D01*
X212401114Y-177061809D01*
X212401114Y-177299904D01*
X212353495Y-177395142D01*
X212305876Y-177442761D01*
X212210638Y-177490380D01*
X211972542Y-177490380D01*
X211877304Y-177442761D01*
X211829685Y-177395142D01*
X213353495Y-177490380D02*
X212782066Y-177490380D01*
X213067780Y-177490380D02*
X213067780Y-176490380D01*
X212972542Y-176633238D01*
X212877304Y-176728476D01*
X212782066Y-176776095D01*
X213972542Y-176490380D02*
X214067780Y-176490380D01*
X214163019Y-176538000D01*
X214210638Y-176585619D01*
X214258257Y-176680857D01*
X214305876Y-176871333D01*
X214305876Y-177109428D01*
X214258257Y-177299904D01*
X214210638Y-177395142D01*
X214163019Y-177442761D01*
X214067780Y-177490380D01*
X213972542Y-177490380D01*
X213877304Y-177442761D01*
X213829685Y-177395142D01*
X213782066Y-177299904D01*
X213734447Y-177109428D01*
X213734447Y-176871333D01*
X213782066Y-176680857D01*
X213829685Y-176585619D01*
X213877304Y-176538000D01*
X213972542Y-176490380D01*
X215258257Y-177490380D02*
X214686828Y-177490380D01*
X214972542Y-177490380D02*
X214972542Y-176490380D01*
X214877304Y-176633238D01*
X214782066Y-176728476D01*
X214686828Y-176776095D01*
X215734447Y-177490380D02*
X215924923Y-177490380D01*
X216020161Y-177442761D01*
X216067780Y-177395142D01*
X216163019Y-177252285D01*
X216210638Y-177061809D01*
X216210638Y-176680857D01*
X216163019Y-176585619D01*
X216115400Y-176538000D01*
X216020161Y-176490380D01*
X215829685Y-176490380D01*
X215734447Y-176538000D01*
X215686828Y-176585619D01*
X215639209Y-176680857D01*
X215639209Y-176918952D01*
X215686828Y-177014190D01*
X215734447Y-177061809D01*
X215829685Y-177109428D01*
X216020161Y-177109428D01*
X216115400Y-177061809D01*
X216163019Y-177014190D01*
X216210638Y-176918952D01*
X208445552Y-163945914D02*
X208445552Y-164612580D01*
X208207457Y-163564961D02*
X207969361Y-164279247D01*
X208588409Y-164279247D01*
X208874123Y-163612580D02*
X209493171Y-163612580D01*
X209159838Y-163993533D01*
X209302695Y-163993533D01*
X209397933Y-164041152D01*
X209445552Y-164088771D01*
X209493171Y-164184009D01*
X209493171Y-164422104D01*
X209445552Y-164517342D01*
X209397933Y-164564961D01*
X209302695Y-164612580D01*
X209016980Y-164612580D01*
X208921742Y-164564961D01*
X208874123Y-164517342D01*
X210112219Y-163612580D02*
X210207457Y-163612580D01*
X210302695Y-163660200D01*
X210350314Y-163707819D01*
X210397933Y-163803057D01*
X210445552Y-163993533D01*
X210445552Y-164231628D01*
X210397933Y-164422104D01*
X210350314Y-164517342D01*
X210302695Y-164564961D01*
X210207457Y-164612580D01*
X210112219Y-164612580D01*
X210016980Y-164564961D01*
X209969361Y-164517342D01*
X209921742Y-164422104D01*
X209874123Y-164231628D01*
X209874123Y-163993533D01*
X209921742Y-163803057D01*
X209969361Y-163707819D01*
X210016980Y-163660200D01*
X210112219Y-163612580D01*
X211302695Y-163945914D02*
X211302695Y-164612580D01*
X211064600Y-163564961D02*
X210826504Y-164279247D01*
X211445552Y-164279247D01*
X212302695Y-163612580D02*
X211826504Y-163612580D01*
X211778885Y-164088771D01*
X211826504Y-164041152D01*
X211921742Y-163993533D01*
X212159838Y-163993533D01*
X212255076Y-164041152D01*
X212302695Y-164088771D01*
X212350314Y-164184009D01*
X212350314Y-164422104D01*
X212302695Y-164517342D01*
X212255076Y-164564961D01*
X212159838Y-164612580D01*
X211921742Y-164612580D01*
X211826504Y-164564961D01*
X211778885Y-164517342D01*
X213302695Y-164612580D02*
X212731266Y-164612580D01*
X213016980Y-164612580D02*
X213016980Y-163612580D01*
X212921742Y-163755438D01*
X212826504Y-163850676D01*
X212731266Y-163898295D01*
X213921742Y-163612580D02*
X214016980Y-163612580D01*
X214112219Y-163660200D01*
X214159838Y-163707819D01*
X214207457Y-163803057D01*
X214255076Y-163993533D01*
X214255076Y-164231628D01*
X214207457Y-164422104D01*
X214159838Y-164517342D01*
X214112219Y-164564961D01*
X214016980Y-164612580D01*
X213921742Y-164612580D01*
X213826504Y-164564961D01*
X213778885Y-164517342D01*
X213731266Y-164422104D01*
X213683647Y-164231628D01*
X213683647Y-163993533D01*
X213731266Y-163803057D01*
X213778885Y-163707819D01*
X213826504Y-163660200D01*
X213921742Y-163612580D01*
X215207457Y-164612580D02*
X214636028Y-164612580D01*
X214921742Y-164612580D02*
X214921742Y-163612580D01*
X214826504Y-163755438D01*
X214731266Y-163850676D01*
X214636028Y-163898295D01*
X215683647Y-164612580D02*
X215874123Y-164612580D01*
X215969361Y-164564961D01*
X216016980Y-164517342D01*
X216112219Y-164374485D01*
X216159838Y-164184009D01*
X216159838Y-163803057D01*
X216112219Y-163707819D01*
X216064600Y-163660200D01*
X215969361Y-163612580D01*
X215778885Y-163612580D01*
X215683647Y-163660200D01*
X215636028Y-163707819D01*
X215588409Y-163803057D01*
X215588409Y-164041152D01*
X215636028Y-164136390D01*
X215683647Y-164184009D01*
X215778885Y-164231628D01*
X215969361Y-164231628D01*
X216064600Y-164184009D01*
X216112219Y-164136390D01*
X216159838Y-164041152D01*
X212699600Y-175245780D02*
X212699600Y-175483876D01*
X212461504Y-175388638D02*
X212699600Y-175483876D01*
X212937695Y-175388638D01*
X212556742Y-175674352D02*
X212699600Y-175483876D01*
X212842457Y-175674352D01*
%TO.C,J4*%
X234210266Y-188479180D02*
X234210266Y-189193466D01*
X234162647Y-189336323D01*
X234067409Y-189431561D01*
X233924552Y-189479180D01*
X233829314Y-189479180D01*
X235115028Y-188812514D02*
X235115028Y-189479180D01*
X234876933Y-188431561D02*
X234638838Y-189145847D01*
X235257885Y-189145847D01*
X231407152Y-197524714D02*
X231407152Y-198191380D01*
X231169057Y-197143761D02*
X230930961Y-197858047D01*
X231550009Y-197858047D01*
X231835723Y-197191380D02*
X232454771Y-197191380D01*
X232121438Y-197572333D01*
X232264295Y-197572333D01*
X232359533Y-197619952D01*
X232407152Y-197667571D01*
X232454771Y-197762809D01*
X232454771Y-198000904D01*
X232407152Y-198096142D01*
X232359533Y-198143761D01*
X232264295Y-198191380D01*
X231978580Y-198191380D01*
X231883342Y-198143761D01*
X231835723Y-198096142D01*
X233073819Y-197191380D02*
X233169057Y-197191380D01*
X233264295Y-197239000D01*
X233311914Y-197286619D01*
X233359533Y-197381857D01*
X233407152Y-197572333D01*
X233407152Y-197810428D01*
X233359533Y-198000904D01*
X233311914Y-198096142D01*
X233264295Y-198143761D01*
X233169057Y-198191380D01*
X233073819Y-198191380D01*
X232978580Y-198143761D01*
X232930961Y-198096142D01*
X232883342Y-198000904D01*
X232835723Y-197810428D01*
X232835723Y-197572333D01*
X232883342Y-197381857D01*
X232930961Y-197286619D01*
X232978580Y-197239000D01*
X233073819Y-197191380D01*
X234264295Y-197524714D02*
X234264295Y-198191380D01*
X234026200Y-197143761D02*
X233788104Y-197858047D01*
X234407152Y-197858047D01*
X235264295Y-197191380D02*
X234788104Y-197191380D01*
X234740485Y-197667571D01*
X234788104Y-197619952D01*
X234883342Y-197572333D01*
X235121438Y-197572333D01*
X235216676Y-197619952D01*
X235264295Y-197667571D01*
X235311914Y-197762809D01*
X235311914Y-198000904D01*
X235264295Y-198096142D01*
X235216676Y-198143761D01*
X235121438Y-198191380D01*
X234883342Y-198191380D01*
X234788104Y-198143761D01*
X234740485Y-198096142D01*
X235930961Y-197191380D02*
X236026200Y-197191380D01*
X236121438Y-197239000D01*
X236169057Y-197286619D01*
X236216676Y-197381857D01*
X236264295Y-197572333D01*
X236264295Y-197810428D01*
X236216676Y-198000904D01*
X236169057Y-198096142D01*
X236121438Y-198143761D01*
X236026200Y-198191380D01*
X235930961Y-198191380D01*
X235835723Y-198143761D01*
X235788104Y-198096142D01*
X235740485Y-198000904D01*
X235692866Y-197810428D01*
X235692866Y-197572333D01*
X235740485Y-197381857D01*
X235788104Y-197286619D01*
X235835723Y-197239000D01*
X235930961Y-197191380D01*
X237121438Y-197524714D02*
X237121438Y-198191380D01*
X236883342Y-197143761D02*
X236645247Y-197858047D01*
X237264295Y-197858047D01*
X238169057Y-198191380D02*
X237597628Y-198191380D01*
X237883342Y-198191380D02*
X237883342Y-197191380D01*
X237788104Y-197334238D01*
X237692866Y-197429476D01*
X237597628Y-197477095D01*
X238645247Y-198191380D02*
X238835723Y-198191380D01*
X238930961Y-198143761D01*
X238978580Y-198096142D01*
X239073819Y-197953285D01*
X239121438Y-197762809D01*
X239121438Y-197381857D01*
X239073819Y-197286619D01*
X239026200Y-197239000D01*
X238930961Y-197191380D01*
X238740485Y-197191380D01*
X238645247Y-197239000D01*
X238597628Y-197286619D01*
X238550009Y-197381857D01*
X238550009Y-197619952D01*
X238597628Y-197715190D01*
X238645247Y-197762809D01*
X238740485Y-197810428D01*
X238930961Y-197810428D01*
X239026200Y-197762809D01*
X239073819Y-197715190D01*
X239121438Y-197619952D01*
X234518200Y-186929780D02*
X234518200Y-187167876D01*
X234280104Y-187072638D02*
X234518200Y-187167876D01*
X234756295Y-187072638D01*
X234375342Y-187358352D02*
X234518200Y-187167876D01*
X234661057Y-187358352D01*
%TO.C,R13*%
X155948142Y-256357380D02*
X155614809Y-255881190D01*
X155376714Y-256357380D02*
X155376714Y-255357380D01*
X155757666Y-255357380D01*
X155852904Y-255405000D01*
X155900523Y-255452619D01*
X155948142Y-255547857D01*
X155948142Y-255690714D01*
X155900523Y-255785952D01*
X155852904Y-255833571D01*
X155757666Y-255881190D01*
X155376714Y-255881190D01*
X156900523Y-256357380D02*
X156329095Y-256357380D01*
X156614809Y-256357380D02*
X156614809Y-255357380D01*
X156519571Y-255500238D01*
X156424333Y-255595476D01*
X156329095Y-255643095D01*
X157233857Y-255357380D02*
X157852904Y-255357380D01*
X157519571Y-255738333D01*
X157662428Y-255738333D01*
X157757666Y-255785952D01*
X157805285Y-255833571D01*
X157852904Y-255928809D01*
X157852904Y-256166904D01*
X157805285Y-256262142D01*
X157757666Y-256309761D01*
X157662428Y-256357380D01*
X157376714Y-256357380D01*
X157281476Y-256309761D01*
X157233857Y-256262142D01*
%TO.C,C3*%
X160081933Y-170240742D02*
X160034314Y-170288361D01*
X159891457Y-170335980D01*
X159796219Y-170335980D01*
X159653361Y-170288361D01*
X159558123Y-170193123D01*
X159510504Y-170097885D01*
X159462885Y-169907409D01*
X159462885Y-169764552D01*
X159510504Y-169574076D01*
X159558123Y-169478838D01*
X159653361Y-169383600D01*
X159796219Y-169335980D01*
X159891457Y-169335980D01*
X160034314Y-169383600D01*
X160081933Y-169431219D01*
X160415266Y-169335980D02*
X161034314Y-169335980D01*
X160700980Y-169716933D01*
X160843838Y-169716933D01*
X160939076Y-169764552D01*
X160986695Y-169812171D01*
X161034314Y-169907409D01*
X161034314Y-170145504D01*
X160986695Y-170240742D01*
X160939076Y-170288361D01*
X160843838Y-170335980D01*
X160558123Y-170335980D01*
X160462885Y-170288361D01*
X160415266Y-170240742D01*
%TO.C,REF\u002A\u002A*%
X241177466Y-116479180D02*
X240844133Y-116002990D01*
X240606038Y-116479180D02*
X240606038Y-115479180D01*
X240986990Y-115479180D01*
X241082228Y-115526800D01*
X241129847Y-115574419D01*
X241177466Y-115669657D01*
X241177466Y-115812514D01*
X241129847Y-115907752D01*
X241082228Y-115955371D01*
X240986990Y-116002990D01*
X240606038Y-116002990D01*
X241606038Y-115955371D02*
X241939371Y-115955371D01*
X242082228Y-116479180D02*
X241606038Y-116479180D01*
X241606038Y-115479180D01*
X242082228Y-115479180D01*
X242844133Y-115955371D02*
X242510800Y-115955371D01*
X242510800Y-116479180D02*
X242510800Y-115479180D01*
X242986990Y-115479180D01*
X243510800Y-115479180D02*
X243510800Y-115717276D01*
X243272704Y-115622038D02*
X243510800Y-115717276D01*
X243748895Y-115622038D01*
X243367942Y-115907752D02*
X243510800Y-115717276D01*
X243653657Y-115907752D01*
X244272704Y-115479180D02*
X244272704Y-115717276D01*
X244034609Y-115622038D02*
X244272704Y-115717276D01*
X244510800Y-115622038D01*
X244129847Y-115907752D02*
X244272704Y-115717276D01*
X244415561Y-115907752D01*
%TO.C,R16*%
X244420142Y-230721980D02*
X244086809Y-230245790D01*
X243848714Y-230721980D02*
X243848714Y-229721980D01*
X244229666Y-229721980D01*
X244324904Y-229769600D01*
X244372523Y-229817219D01*
X244420142Y-229912457D01*
X244420142Y-230055314D01*
X244372523Y-230150552D01*
X244324904Y-230198171D01*
X244229666Y-230245790D01*
X243848714Y-230245790D01*
X245372523Y-230721980D02*
X244801095Y-230721980D01*
X245086809Y-230721980D02*
X245086809Y-229721980D01*
X244991571Y-229864838D01*
X244896333Y-229960076D01*
X244801095Y-230007695D01*
X246229666Y-229721980D02*
X246039190Y-229721980D01*
X245943952Y-229769600D01*
X245896333Y-229817219D01*
X245801095Y-229960076D01*
X245753476Y-230150552D01*
X245753476Y-230531504D01*
X245801095Y-230626742D01*
X245848714Y-230674361D01*
X245943952Y-230721980D01*
X246134428Y-230721980D01*
X246229666Y-230674361D01*
X246277285Y-230626742D01*
X246324904Y-230531504D01*
X246324904Y-230293409D01*
X246277285Y-230198171D01*
X246229666Y-230150552D01*
X246134428Y-230102933D01*
X245943952Y-230102933D01*
X245848714Y-230150552D01*
X245801095Y-230198171D01*
X245753476Y-230293409D01*
%TO.C,R27*%
X178631780Y-258198857D02*
X178155590Y-258532190D01*
X178631780Y-258770285D02*
X177631780Y-258770285D01*
X177631780Y-258389333D01*
X177679400Y-258294095D01*
X177727019Y-258246476D01*
X177822257Y-258198857D01*
X177965114Y-258198857D01*
X178060352Y-258246476D01*
X178107971Y-258294095D01*
X178155590Y-258389333D01*
X178155590Y-258770285D01*
X177727019Y-257817904D02*
X177679400Y-257770285D01*
X177631780Y-257675047D01*
X177631780Y-257436952D01*
X177679400Y-257341714D01*
X177727019Y-257294095D01*
X177822257Y-257246476D01*
X177917495Y-257246476D01*
X178060352Y-257294095D01*
X178631780Y-257865523D01*
X178631780Y-257246476D01*
X177631780Y-256913142D02*
X177631780Y-256246476D01*
X178631780Y-256675047D01*
%TO.C,R4*%
X247406133Y-142509980D02*
X247072800Y-142033790D01*
X246834704Y-142509980D02*
X246834704Y-141509980D01*
X247215657Y-141509980D01*
X247310895Y-141557600D01*
X247358514Y-141605219D01*
X247406133Y-141700457D01*
X247406133Y-141843314D01*
X247358514Y-141938552D01*
X247310895Y-141986171D01*
X247215657Y-142033790D01*
X246834704Y-142033790D01*
X248263276Y-141843314D02*
X248263276Y-142509980D01*
X248025180Y-141462361D02*
X247787085Y-142176647D01*
X248406133Y-142176647D01*
%TO.C,C7*%
X250429733Y-226891342D02*
X250382114Y-226938961D01*
X250239257Y-226986580D01*
X250144019Y-226986580D01*
X250001161Y-226938961D01*
X249905923Y-226843723D01*
X249858304Y-226748485D01*
X249810685Y-226558009D01*
X249810685Y-226415152D01*
X249858304Y-226224676D01*
X249905923Y-226129438D01*
X250001161Y-226034200D01*
X250144019Y-225986580D01*
X250239257Y-225986580D01*
X250382114Y-226034200D01*
X250429733Y-226081819D01*
X250763066Y-225986580D02*
X251429733Y-225986580D01*
X251001161Y-226986580D01*
%TO.C,REF\u002A\u002A*%
X298513666Y-197149980D02*
X298180333Y-196673790D01*
X297942238Y-197149980D02*
X297942238Y-196149980D01*
X298323190Y-196149980D01*
X298418428Y-196197600D01*
X298466047Y-196245219D01*
X298513666Y-196340457D01*
X298513666Y-196483314D01*
X298466047Y-196578552D01*
X298418428Y-196626171D01*
X298323190Y-196673790D01*
X297942238Y-196673790D01*
X298942238Y-196626171D02*
X299275571Y-196626171D01*
X299418428Y-197149980D02*
X298942238Y-197149980D01*
X298942238Y-196149980D01*
X299418428Y-196149980D01*
X300180333Y-196626171D02*
X299847000Y-196626171D01*
X299847000Y-197149980D02*
X299847000Y-196149980D01*
X300323190Y-196149980D01*
X300847000Y-196149980D02*
X300847000Y-196388076D01*
X300608904Y-196292838D02*
X300847000Y-196388076D01*
X301085095Y-196292838D01*
X300704142Y-196578552D02*
X300847000Y-196388076D01*
X300989857Y-196578552D01*
X301608904Y-196149980D02*
X301608904Y-196388076D01*
X301370809Y-196292838D02*
X301608904Y-196388076D01*
X301847000Y-196292838D01*
X301466047Y-196578552D02*
X301608904Y-196388076D01*
X301751761Y-196578552D01*
D11*
%TO.C,R20*%
X254280400Y-224892841D02*
X254280400Y-224585559D01*
X255040400Y-224892841D02*
X255040400Y-224585559D01*
%TO.C,R23*%
X237463600Y-137539759D02*
X237463600Y-137847041D01*
X236703600Y-137539759D02*
X236703600Y-137847041D01*
%TO.C,R21*%
X228573600Y-240079559D02*
X228573600Y-240386841D01*
X227813600Y-240079559D02*
X227813600Y-240386841D01*
%TO.C,C2*%
X242787552Y-150137850D02*
X240465048Y-150137850D01*
X242787552Y-146717850D02*
X240465048Y-146717850D01*
%TO.C,R26*%
X181273400Y-144101200D02*
X181273400Y-144101200D01*
X180893400Y-144101200D02*
X182173400Y-144101200D01*
X183153400Y-139261200D02*
X183673400Y-139261200D01*
X180893400Y-139261200D02*
X181373400Y-139261200D01*
X184653400Y-144101200D02*
X185933400Y-144101200D01*
X185453400Y-139261200D02*
X185933400Y-139261200D01*
X181273400Y-144101200D02*
X182173400Y-144101200D01*
X181273400Y-144101200D02*
X182173400Y-144101200D01*
X185933400Y-144101200D02*
X185933400Y-139261200D01*
X180893400Y-144101200D02*
X180893400Y-139261200D01*
%TO.C,R22*%
X214738000Y-253713600D02*
X214738000Y-253713600D01*
X210558000Y-258553600D02*
X210078000Y-258553600D01*
X215118000Y-258553600D02*
X214638000Y-258553600D01*
X215118000Y-253713600D02*
X215118000Y-258553600D01*
X212858000Y-258553600D02*
X212338000Y-258553600D01*
X211358000Y-253713600D02*
X210078000Y-253713600D01*
X214738000Y-253713600D02*
X213838000Y-253713600D01*
X210078000Y-253713600D02*
X210078000Y-258553600D01*
X215118000Y-253713600D02*
X213838000Y-253713600D01*
X214738000Y-253713600D02*
X213838000Y-253713600D01*
%TO.C,R7*%
X162789600Y-173074359D02*
X162789600Y-173381641D01*
X163549600Y-173074359D02*
X163549600Y-173381641D01*
%TO.C,R17*%
X245538559Y-223902000D02*
X245845841Y-223902000D01*
X245538559Y-224662000D02*
X245845841Y-224662000D01*
%TO.C,R3*%
X247855441Y-150313200D02*
X247548159Y-150313200D01*
X247855441Y-149553200D02*
X247548159Y-149553200D01*
%TO.C,D1*%
X237764000Y-162030800D02*
X247964000Y-162030800D01*
X247964000Y-162030800D02*
X247964000Y-153030800D01*
X247964000Y-153030800D02*
X237764000Y-153030800D01*
X237764000Y-153030800D02*
X237764000Y-162030800D01*
X248552000Y-157530800D02*
G75*
G03*
X248552000Y-157530800I-100000J0D01*
G01*
%TO.C,C8*%
X246322052Y-214799600D02*
X243999548Y-214799600D01*
X246322052Y-218219600D02*
X243999548Y-218219600D01*
%TO.C,R18*%
X230656400Y-244730241D02*
X230656400Y-244422959D01*
X229896400Y-244730241D02*
X229896400Y-244422959D01*
%TO.C,D3*%
X155732800Y-233625000D02*
X155732800Y-242625000D01*
X165932800Y-233625000D02*
X155732800Y-233625000D01*
X155732800Y-242625000D02*
X165932800Y-242625000D01*
X165932800Y-242625000D02*
X165932800Y-233625000D01*
X155344800Y-238125000D02*
G75*
G03*
X155344800Y-238125000I-100000J0D01*
G01*
%TO.C,R12*%
X159434800Y-220851759D02*
X159434800Y-221159041D01*
X158674800Y-220851759D02*
X158674800Y-221159041D01*
%TO.C,C6*%
X164473200Y-258082252D02*
X164473200Y-255759748D01*
X161053200Y-258082252D02*
X161053200Y-255759748D01*
%TO.C,R10*%
X163612641Y-146160600D02*
X163305359Y-146160600D01*
X163612641Y-145400600D02*
X163305359Y-145400600D01*
%TO.C,R25*%
X192225959Y-136727200D02*
X192533241Y-136727200D01*
X192225959Y-135967200D02*
X192533241Y-135967200D01*
%TO.C,R11*%
X159231841Y-215672400D02*
X158924559Y-215672400D01*
X159231841Y-216432400D02*
X158924559Y-216432400D01*
%TO.C,R14*%
X155855400Y-259309841D02*
X155855400Y-259002559D01*
X156615400Y-259309841D02*
X156615400Y-259002559D01*
%TO.C,C1*%
X232721948Y-165362200D02*
X235044452Y-165362200D01*
X232721948Y-161942200D02*
X235044452Y-161942200D01*
%TO.C,R2*%
X231392759Y-167844200D02*
X231700041Y-167844200D01*
X231392759Y-168604200D02*
X231700041Y-168604200D01*
%TO.C,C5*%
X166175000Y-220428348D02*
X166175000Y-222750852D01*
X162755000Y-220428348D02*
X162755000Y-222750852D01*
%TO.C,C4*%
X159061948Y-139666400D02*
X161384452Y-139666400D01*
X159061948Y-143086400D02*
X161384452Y-143086400D01*
%TO.C,R28*%
X189412400Y-254247000D02*
X188132400Y-254247000D01*
X193172400Y-259087000D02*
X192692400Y-259087000D01*
X188132400Y-254247000D02*
X188132400Y-259087000D01*
X192792400Y-254247000D02*
X191892400Y-254247000D01*
X193172400Y-254247000D02*
X193172400Y-259087000D01*
X192792400Y-254247000D02*
X192792400Y-254247000D01*
X190912400Y-259087000D02*
X190392400Y-259087000D01*
X188612400Y-259087000D02*
X188132400Y-259087000D01*
X193172400Y-254247000D02*
X191892400Y-254247000D01*
X192792400Y-254247000D02*
X191892400Y-254247000D01*
%TO.C,R24*%
X223728600Y-144431400D02*
X223728600Y-139591400D01*
X218688600Y-144431400D02*
X218688600Y-139591400D01*
X218688600Y-139591400D02*
X219168600Y-139591400D01*
X223248600Y-139591400D02*
X223728600Y-139591400D01*
X219068600Y-144431400D02*
X219968600Y-144431400D01*
X220948600Y-139591400D02*
X221468600Y-139591400D01*
X219068600Y-144431400D02*
X219068600Y-144431400D01*
X218688600Y-144431400D02*
X219968600Y-144431400D01*
X222448600Y-144431400D02*
X223728600Y-144431400D01*
X219068600Y-144431400D02*
X219968600Y-144431400D01*
%TO.C,R19*%
X255144241Y-242977400D02*
X254836959Y-242977400D01*
X255144241Y-243737400D02*
X254836959Y-243737400D01*
%TO.C,D4*%
X238357000Y-232100600D02*
X238357000Y-242300600D01*
X247357000Y-242300600D02*
X247357000Y-232100600D01*
X238357000Y-242300600D02*
X247357000Y-242300600D01*
X247357000Y-232100600D02*
X238357000Y-232100600D01*
X242957000Y-242788600D02*
G75*
G03*
X242957000Y-242788600I-100000J0D01*
G01*
%TO.C,D2*%
X156739200Y-151567200D02*
X156739200Y-161767200D01*
X156739200Y-161767200D02*
X165739200Y-161767200D01*
X165739200Y-151567200D02*
X156739200Y-151567200D01*
X165739200Y-161767200D02*
X165739200Y-151567200D01*
X161339200Y-151079200D02*
G75*
G03*
X161339200Y-151079200I-100000J0D01*
G01*
%TO.C,R1*%
X228497159Y-161087800D02*
X228804441Y-161087800D01*
X228497159Y-161847800D02*
X228804441Y-161847800D01*
%TO.C,R15*%
X168680400Y-259769041D02*
X168680400Y-259461759D01*
X167920400Y-259769041D02*
X167920400Y-259461759D01*
%TO.C,R9*%
X157938200Y-147267959D02*
X157938200Y-147575241D01*
X158698200Y-147267959D02*
X158698200Y-147575241D01*
%TO.C,R5*%
X242037841Y-143104600D02*
X241730559Y-143104600D01*
X242037841Y-143864600D02*
X241730559Y-143864600D01*
%TO.C,R8*%
X172312359Y-149530800D02*
X172619641Y-149530800D01*
X172312359Y-150290800D02*
X172619641Y-150290800D01*
%TO.C,R6*%
X166877000Y-168222959D02*
X166877000Y-168530241D01*
X166117000Y-168222959D02*
X166117000Y-168530241D01*
%TO.C,J3*%
X210957160Y-171625799D02*
X209867241Y-171625799D01*
X200587224Y-178360840D02*
X200587224Y-182825799D01*
X218867238Y-182825799D02*
X223237179Y-182825799D01*
X215867239Y-182825799D02*
X216957158Y-182825799D01*
X223237179Y-176070760D02*
X223237179Y-171625799D01*
X212867240Y-182825799D02*
X213957159Y-182825799D01*
X209867241Y-182825799D02*
X210957160Y-182825799D01*
X223491178Y-181915801D02*
X224507178Y-181280801D01*
X213957159Y-171625799D02*
X212867240Y-171625799D01*
X224507178Y-182550801D02*
X223491178Y-181915801D01*
X204957162Y-171625799D02*
X200587224Y-171625799D01*
X216957158Y-171625799D02*
X215867239Y-171625799D01*
X206867242Y-182825799D02*
X207957161Y-182825799D01*
X207957161Y-171625799D02*
X206867242Y-171625799D01*
X200587224Y-171625799D02*
X200587224Y-176070760D01*
X223237179Y-171625799D02*
X218867238Y-171625799D01*
X200587224Y-182825799D02*
X204957162Y-182825799D01*
X224507178Y-181280801D02*
X224507178Y-182550801D01*
X223237179Y-182825799D02*
X223237179Y-178360840D01*
%TO.C,J4*%
X227693213Y-193067401D02*
X232063160Y-193067401D01*
X226423213Y-183412399D02*
X226423213Y-182142399D01*
X227693213Y-188622440D02*
X227693213Y-193067401D01*
X227439213Y-182777399D02*
X226423213Y-183412399D01*
X233973240Y-193067401D02*
X235063160Y-193067401D01*
X227693213Y-181867401D02*
X227693213Y-186332360D01*
X241343185Y-186332360D02*
X241343185Y-181867401D01*
X236973240Y-193067401D02*
X241343185Y-193067401D01*
X232063160Y-181867401D02*
X227693213Y-181867401D01*
X226423213Y-182142399D02*
X227439213Y-182777399D01*
X235063160Y-181867401D02*
X233973240Y-181867401D01*
X241343185Y-193067401D02*
X241343185Y-188622440D01*
X241343185Y-181867401D02*
X236973240Y-181867401D01*
%TO.C,R13*%
X156665959Y-253035800D02*
X156973241Y-253035800D01*
X156665959Y-253795800D02*
X156973241Y-253795800D01*
%TO.C,C3*%
X161409852Y-165523600D02*
X159087348Y-165523600D01*
X161409852Y-168943600D02*
X159087348Y-168943600D01*
%TO.C,R16*%
X245085841Y-229030800D02*
X244778559Y-229030800D01*
X245085841Y-228270800D02*
X244778559Y-228270800D01*
%TO.C,R27*%
X178969400Y-257709641D02*
X178969400Y-257402359D01*
X179729400Y-257709641D02*
X179729400Y-257402359D01*
%TO.C,R4*%
X247419159Y-142847600D02*
X247726441Y-142847600D01*
X247419159Y-143607600D02*
X247726441Y-143607600D01*
%TO.C,C7*%
X249435148Y-230894200D02*
X251757652Y-230894200D01*
X249435148Y-227474200D02*
X251757652Y-227474200D01*
%TD*%
M02*
