%TF.GenerationSoftware,KiCad,Pcbnew,(6.0.10-0)*%
%TF.CreationDate,2023-04-17T19:00:21-04:00*%
%TF.ProjectId,my_anode,6d795f61-6e6f-4646-952e-6b696361645f,rev?*%
%TF.SameCoordinates,Original*%
%TF.FileFunction,Copper,L1,Top*%
%TF.FilePolarity,Positive*%
%FSLAX46Y46*%
G04 Gerber Fmt 4.6, Leading zero omitted, Abs format (unit mm)*
G04 Created by KiCad (PCBNEW (6.0.10-0)) date 2023-04-17 19:00:21*
%MOMM*%
%LPD*%
G01*
G04 APERTURE LIST*
G04 Aperture macros list*
%AMRoundRect*
0 Rectangle with rounded corners*
0 $1 Rounding radius*
0 $2 $3 $4 $5 $6 $7 $8 $9 X,Y pos of 4 corners*
0 Add a 4 corners polygon primitive as box body*
4,1,4,$2,$3,$4,$5,$6,$7,$8,$9,$2,$3,0*
0 Add four circle primitives for the rounded corners*
1,1,$1+$1,$2,$3*
1,1,$1+$1,$4,$5*
1,1,$1+$1,$6,$7*
1,1,$1+$1,$8,$9*
0 Add four rect primitives between the rounded corners*
20,1,$1+$1,$2,$3,$4,$5,0*
20,1,$1+$1,$4,$5,$6,$7,0*
20,1,$1+$1,$6,$7,$8,$9,0*
20,1,$1+$1,$8,$9,$2,$3,0*%
G04 Aperture macros list end*
%TA.AperFunction,SMDPad,CuDef*%
%ADD10RoundRect,0.135000X0.185000X-0.135000X0.185000X0.135000X-0.185000X0.135000X-0.185000X-0.135000X0*%
%TD*%
%TA.AperFunction,SMDPad,CuDef*%
%ADD11RoundRect,0.135000X-0.185000X0.135000X-0.185000X-0.135000X0.185000X-0.135000X0.185000X0.135000X0*%
%TD*%
%TA.AperFunction,SMDPad,CuDef*%
%ADD12RoundRect,0.250000X0.537500X1.450000X-0.537500X1.450000X-0.537500X-1.450000X0.537500X-1.450000X0*%
%TD*%
%TA.AperFunction,SMDPad,CuDef*%
%ADD13R,1.300000X1.300000*%
%TD*%
%TA.AperFunction,SMDPad,CuDef*%
%ADD14R,2.000000X1.300000*%
%TD*%
%TA.AperFunction,SMDPad,CuDef*%
%ADD15RoundRect,0.135000X-0.135000X-0.185000X0.135000X-0.185000X0.135000X0.185000X-0.135000X0.185000X0*%
%TD*%
%TA.AperFunction,SMDPad,CuDef*%
%ADD16RoundRect,0.135000X0.135000X0.185000X-0.135000X0.185000X-0.135000X-0.185000X0.135000X-0.185000X0*%
%TD*%
%TA.AperFunction,ComponentPad*%
%ADD17C,2.286000*%
%TD*%
%TA.AperFunction,SMDPad,CuDef*%
%ADD18RoundRect,0.250000X1.450000X-0.537500X1.450000X0.537500X-1.450000X0.537500X-1.450000X-0.537500X0*%
%TD*%
%TA.AperFunction,SMDPad,CuDef*%
%ADD19RoundRect,0.250000X-0.537500X-1.450000X0.537500X-1.450000X0.537500X1.450000X-0.537500X1.450000X0*%
%TD*%
%TA.AperFunction,SMDPad,CuDef*%
%ADD20RoundRect,0.250000X-1.450000X0.537500X-1.450000X-0.537500X1.450000X-0.537500X1.450000X0.537500X0*%
%TD*%
%TA.AperFunction,SMDPad,CuDef*%
%ADD21R,1.270000X2.540000*%
%TD*%
%TA.AperFunction,SMDPad,CuDef*%
%ADD22R,3.430001X1.650000*%
%TD*%
%TA.AperFunction,ViaPad*%
%ADD23C,0.800000*%
%TD*%
%TA.AperFunction,Conductor*%
%ADD24C,0.250000*%
%TD*%
G04 APERTURE END LIST*
D10*
%TO.P,R20,1*%
%TO.N,Net-(R20-Pad1)*%
X254660400Y-225249200D03*
%TO.P,R20,2*%
%TO.N,Net-(C8-Pad1)*%
X254660400Y-224229200D03*
%TD*%
D11*
%TO.P,R23,1*%
%TO.N,Net-(R5-Pad1)*%
X237083600Y-137183400D03*
%TO.P,R23,2*%
%TO.N,/1G1*%
X237083600Y-138203400D03*
%TD*%
%TO.P,R21,1*%
%TO.N,Net-(R20-Pad1)*%
X228193600Y-239723200D03*
%TO.P,R21,2*%
%TO.N,/1G1*%
X228193600Y-240743200D03*
%TD*%
D12*
%TO.P,C2,1*%
%TO.N,Net-(C2-Pad1)*%
X243763800Y-148427850D03*
%TO.P,C2,2*%
%TO.N,/1G1*%
X239488800Y-148427850D03*
%TD*%
D13*
%TO.P,R26,1*%
%TO.N,Net-(R10-Pad1)*%
X182263400Y-139081200D03*
D14*
%TO.P,R26,2*%
%TO.N,/B1*%
X183413400Y-144281200D03*
D13*
%TO.P,R26,3*%
%TO.N,N/C*%
X184563400Y-139081200D03*
%TD*%
%TO.P,R22,1*%
%TO.N,Net-(R20-Pad1)*%
X213748000Y-258733600D03*
D14*
%TO.P,R22,2*%
%TO.N,/B1*%
X212598000Y-253533600D03*
D13*
%TO.P,R22,3*%
%TO.N,N/C*%
X211448000Y-258733600D03*
%TD*%
D11*
%TO.P,R7,1*%
%TO.N,/S2*%
X163169600Y-172718000D03*
%TO.P,R7,2*%
%TO.N,/G2*%
X163169600Y-173738000D03*
%TD*%
D15*
%TO.P,R17,1*%
%TO.N,/S4*%
X245182200Y-224282000D03*
%TO.P,R17,2*%
%TO.N,/G4*%
X246202200Y-224282000D03*
%TD*%
D16*
%TO.P,R3,1*%
%TO.N,/G1*%
X248211800Y-149933200D03*
%TO.P,R3,2*%
%TO.N,/1G1*%
X247191800Y-149933200D03*
%TD*%
D17*
%TO.P,D1,1,K*%
%TO.N,Net-(C1-Pad2)*%
X246614000Y-157530800D03*
%TO.P,D1,2,A*%
%TO.N,/G1*%
X239114000Y-157530800D03*
%TD*%
D12*
%TO.P,C8,1*%
%TO.N,Net-(C8-Pad1)*%
X247298300Y-216509600D03*
%TO.P,C8,2*%
%TO.N,/1G1*%
X243023300Y-216509600D03*
%TD*%
D10*
%TO.P,R18,1*%
%TO.N,/G4*%
X230276400Y-245086600D03*
%TO.P,R18,2*%
%TO.N,/1G1*%
X230276400Y-244066600D03*
%TD*%
D17*
%TO.P,D3,1,K*%
%TO.N,Net-(C5-Pad2)*%
X157082800Y-238125000D03*
%TO.P,D3,2,A*%
%TO.N,/G3*%
X164582800Y-238125000D03*
%TD*%
D11*
%TO.P,R12,1*%
%TO.N,/S3*%
X159054800Y-220495400D03*
%TO.P,R12,2*%
%TO.N,/G3*%
X159054800Y-221515400D03*
%TD*%
D18*
%TO.P,C6,1*%
%TO.N,Net-(C6-Pad1)*%
X162763200Y-259058500D03*
%TO.P,C6,2*%
%TO.N,/1G1*%
X162763200Y-254783500D03*
%TD*%
D16*
%TO.P,R10,1*%
%TO.N,Net-(R10-Pad1)*%
X163969000Y-145780600D03*
%TO.P,R10,2*%
%TO.N,Net-(C4-Pad1)*%
X162949000Y-145780600D03*
%TD*%
D15*
%TO.P,R25,1*%
%TO.N,Net-(R10-Pad1)*%
X191869600Y-136347200D03*
%TO.P,R25,2*%
%TO.N,/1G1*%
X192889600Y-136347200D03*
%TD*%
D16*
%TO.P,R11,1*%
%TO.N,Net-(C5-Pad1)*%
X159588200Y-216052400D03*
%TO.P,R11,2*%
%TO.N,/S3*%
X158568200Y-216052400D03*
%TD*%
D10*
%TO.P,R14,1*%
%TO.N,Net-(C6-Pad1)*%
X156235400Y-259666200D03*
%TO.P,R14,2*%
%TO.N,Net-(C5-Pad2)*%
X156235400Y-258646200D03*
%TD*%
D19*
%TO.P,C1,1*%
%TO.N,Net-(C1-Pad1)*%
X231745700Y-163652200D03*
%TO.P,C1,2*%
%TO.N,Net-(C1-Pad2)*%
X236020700Y-163652200D03*
%TD*%
D15*
%TO.P,R2,1*%
%TO.N,/S1*%
X231036400Y-168224200D03*
%TO.P,R2,2*%
%TO.N,/G1*%
X232056400Y-168224200D03*
%TD*%
D20*
%TO.P,C5,1*%
%TO.N,Net-(C5-Pad1)*%
X164465000Y-219452100D03*
%TO.P,C5,2*%
%TO.N,Net-(C5-Pad2)*%
X164465000Y-223727100D03*
%TD*%
D19*
%TO.P,C4,1*%
%TO.N,Net-(C4-Pad1)*%
X158085700Y-141376400D03*
%TO.P,C4,2*%
%TO.N,/1G1*%
X162360700Y-141376400D03*
%TD*%
D13*
%TO.P,R28,1*%
%TO.N,Net-(R15-Pad1)*%
X191802400Y-259267000D03*
D14*
%TO.P,R28,2*%
%TO.N,/B1*%
X190652400Y-254067000D03*
D13*
%TO.P,R28,3*%
%TO.N,N/C*%
X189502400Y-259267000D03*
%TD*%
%TO.P,R24,1*%
%TO.N,Net-(R5-Pad1)*%
X220058600Y-139411400D03*
D14*
%TO.P,R24,2*%
%TO.N,/B1*%
X221208600Y-144611400D03*
D13*
%TO.P,R24,3*%
%TO.N,N/C*%
X222358600Y-139411400D03*
%TD*%
D16*
%TO.P,R19,1*%
%TO.N,Net-(C8-Pad1)*%
X255500600Y-243357400D03*
%TO.P,R19,2*%
%TO.N,Net-(C7-Pad2)*%
X254480600Y-243357400D03*
%TD*%
D17*
%TO.P,D4,1,K*%
%TO.N,Net-(C7-Pad2)*%
X242857000Y-240950600D03*
%TO.P,D4,2,A*%
%TO.N,/G4*%
X242857000Y-233450600D03*
%TD*%
%TO.P,D2,1,K*%
%TO.N,Net-(C3-Pad2)*%
X161239200Y-152917200D03*
%TO.P,D2,2,A*%
%TO.N,/G2*%
X161239200Y-160417200D03*
%TD*%
D15*
%TO.P,R1,1*%
%TO.N,Net-(C1-Pad1)*%
X228140800Y-161467800D03*
%TO.P,R1,2*%
%TO.N,/S1*%
X229160800Y-161467800D03*
%TD*%
D10*
%TO.P,R15,1*%
%TO.N,Net-(R15-Pad1)*%
X168300400Y-260125400D03*
%TO.P,R15,2*%
%TO.N,Net-(C6-Pad1)*%
X168300400Y-259105400D03*
%TD*%
D11*
%TO.P,R9,1*%
%TO.N,Net-(C4-Pad1)*%
X158318200Y-146911600D03*
%TO.P,R9,2*%
%TO.N,Net-(C3-Pad2)*%
X158318200Y-147931600D03*
%TD*%
D16*
%TO.P,R5,1*%
%TO.N,Net-(R5-Pad1)*%
X242394200Y-143484600D03*
%TO.P,R5,2*%
%TO.N,Net-(C2-Pad1)*%
X241374200Y-143484600D03*
%TD*%
D15*
%TO.P,R8,1*%
%TO.N,/G2*%
X171956000Y-149910800D03*
%TO.P,R8,2*%
%TO.N,/1G1*%
X172976000Y-149910800D03*
%TD*%
D11*
%TO.P,R6,1*%
%TO.N,Net-(C3-Pad1)*%
X166497000Y-167866600D03*
%TO.P,R6,2*%
%TO.N,/S2*%
X166497000Y-168886600D03*
%TD*%
D21*
%TO.P,J3,1,1*%
%TO.N,/1G1*%
X217912198Y-181915801D03*
%TO.P,J3,2,2*%
%TO.N,/G3*%
X214912199Y-181915801D03*
%TO.P,J3,3,3*%
%TO.N,/S3*%
X211912200Y-181915801D03*
%TO.P,J3,4,4*%
%TO.N,/G2*%
X208912201Y-181915801D03*
%TO.P,J3,5,5*%
%TO.N,/S2*%
X205912202Y-181915801D03*
%TO.P,J3,6,6*%
%TO.N,/S4*%
X217912198Y-172515802D03*
%TO.P,J3,7,7*%
%TO.N,/G4*%
X214912199Y-172515802D03*
%TO.P,J3,8,8*%
%TO.N,/S1*%
X211912200Y-172515802D03*
%TO.P,J3,9,9*%
%TO.N,/G1*%
X208912201Y-172515802D03*
%TO.P,J3,10,10*%
%TO.N,/B1*%
X205912202Y-172515802D03*
D22*
%TO.P,J3,S1,S1*%
%TO.N,unconnected-(J3-PadS1)*%
X221797176Y-177215800D03*
%TO.P,J3,S2,S2*%
%TO.N,unconnected-(J3-PadS2)*%
X202027224Y-177215800D03*
%TD*%
D21*
%TO.P,J4,1,1*%
%TO.N,Net-(J4-Pad1)*%
X233018200Y-182777399D03*
%TO.P,J4,2,2*%
%TO.N,Net-(J4-Pad2)*%
X236018200Y-182777399D03*
%TO.P,J4,3,3*%
%TO.N,Net-(J4-Pad3)*%
X233018200Y-192177398D03*
%TO.P,J4,4,4*%
%TO.N,Net-(J4-Pad4)*%
X236018200Y-192177398D03*
D22*
%TO.P,J4,S1,S1*%
%TO.N,unconnected-(J4-PadS1)*%
X229133215Y-187477400D03*
%TO.P,J4,S2,S2*%
%TO.N,unconnected-(J4-PadS2)*%
X239903185Y-187477400D03*
%TD*%
D15*
%TO.P,R13,1*%
%TO.N,/G3*%
X156309600Y-253415800D03*
%TO.P,R13,2*%
%TO.N,/1G1*%
X157329600Y-253415800D03*
%TD*%
D12*
%TO.P,C3,1*%
%TO.N,Net-(C3-Pad1)*%
X162386100Y-167233600D03*
%TO.P,C3,2*%
%TO.N,Net-(C3-Pad2)*%
X158111100Y-167233600D03*
%TD*%
D16*
%TO.P,R16,1*%
%TO.N,Net-(C7-Pad1)*%
X245442200Y-228650800D03*
%TO.P,R16,2*%
%TO.N,/S4*%
X244422200Y-228650800D03*
%TD*%
D10*
%TO.P,R27,1*%
%TO.N,Net-(R15-Pad1)*%
X179349400Y-258066000D03*
%TO.P,R27,2*%
%TO.N,/1G1*%
X179349400Y-257046000D03*
%TD*%
D15*
%TO.P,R4,1*%
%TO.N,Net-(C2-Pad1)*%
X247062800Y-143227600D03*
%TO.P,R4,2*%
%TO.N,Net-(C1-Pad2)*%
X248082800Y-143227600D03*
%TD*%
D19*
%TO.P,C7,1*%
%TO.N,Net-(C7-Pad1)*%
X248458900Y-229184200D03*
%TO.P,C7,2*%
%TO.N,Net-(C7-Pad2)*%
X252733900Y-229184200D03*
%TD*%
D23*
%TO.N,Net-(J4-Pad1)*%
X244119400Y-168783000D03*
%TO.N,Net-(J4-Pad2)*%
X174819799Y-156912799D03*
%TO.N,Net-(J4-Pad3)*%
X161188400Y-247853200D03*
%TO.N,Net-(J4-Pad4)*%
X233476800Y-236550200D03*
%TD*%
D24*
%TO.N,Net-(C1-Pad1)*%
X231745700Y-162852900D02*
X229696200Y-160803400D01*
X231745700Y-163652200D02*
X231745700Y-162852900D01*
X228140800Y-161467800D02*
X228805200Y-160803400D01*
X228805200Y-160803400D02*
X229696200Y-160803400D01*
%TO.N,Net-(C1-Pad2)*%
X249250200Y-144830800D02*
X249250200Y-144395000D01*
X249250200Y-154894600D02*
X249250200Y-144830800D01*
X236020700Y-163652200D02*
X240492600Y-163652200D01*
X240492600Y-163652200D02*
X246614000Y-157530800D01*
X249250200Y-144395000D02*
X248082800Y-143227600D01*
X246614000Y-157530800D02*
X249250200Y-154894600D01*
%TO.N,Net-(C2-Pad1)*%
X243763800Y-145874200D02*
X241374200Y-143484600D01*
X243763800Y-148427850D02*
X243763800Y-145874200D01*
X243763800Y-148427850D02*
X243763800Y-146526600D01*
X243763800Y-146526600D02*
X247062800Y-143227600D01*
%TO.N,Net-(C3-Pad1)*%
X162386100Y-167233600D02*
X163019100Y-167866600D01*
X163019100Y-167866600D02*
X166497000Y-167866600D01*
%TO.N,Net-(C3-Pad2)*%
X158111100Y-156045300D02*
X158111100Y-167233600D01*
X161239200Y-150852600D02*
X158318200Y-147931600D01*
X161239200Y-152917200D02*
X161239200Y-150852600D01*
X158246600Y-155909800D02*
X158111100Y-156045300D01*
X158246600Y-155909800D02*
X161239200Y-152917200D01*
%TO.N,Net-(C4-Pad1)*%
X158318200Y-141608900D02*
X158085700Y-141376400D01*
X158318200Y-146911600D02*
X161818000Y-146911600D01*
X161818000Y-146911600D02*
X162949000Y-145780600D01*
X158318200Y-146911600D02*
X158318200Y-141608900D01*
%TO.N,Net-(C5-Pad1)*%
X161065300Y-216052400D02*
X164465000Y-219452100D01*
X159588200Y-216052400D02*
X161065300Y-216052400D01*
%TO.N,Net-(C5-Pad2)*%
X154584400Y-256995200D02*
X154584400Y-235610400D01*
X158790050Y-229402050D02*
X164465000Y-223727100D01*
X157082800Y-238125000D02*
X157082800Y-231109300D01*
X154584400Y-235610400D02*
X154584400Y-233607700D01*
X157082800Y-231109300D02*
X158790050Y-229402050D01*
X154584400Y-233607700D02*
X158790050Y-229402050D01*
X156235400Y-258646200D02*
X154584400Y-256995200D01*
%TO.N,Net-(C6-Pad1)*%
X162763200Y-259058500D02*
X162810100Y-259105400D01*
X162810100Y-259105400D02*
X168300400Y-259105400D01*
X162155500Y-259666200D02*
X162763200Y-259058500D01*
X156235400Y-259666200D02*
X162155500Y-259666200D01*
%TO.N,Net-(C7-Pad1)*%
X245442200Y-228650800D02*
X247925500Y-228650800D01*
X247925500Y-228650800D02*
X248458900Y-229184200D01*
%TO.N,Net-(C7-Pad2)*%
X242857000Y-240950600D02*
X252073800Y-240950600D01*
X242857000Y-239061100D02*
X242857000Y-240950600D01*
X252733900Y-229184200D02*
X242857000Y-239061100D01*
X252073800Y-240950600D02*
X254480600Y-243357400D01*
%TO.N,Net-(C8-Pad1)*%
X254015400Y-224874200D02*
X254015400Y-241872200D01*
X254015400Y-241872200D02*
X255500600Y-243357400D01*
X254660400Y-224229200D02*
X254660400Y-223871700D01*
X254660400Y-223871700D02*
X247298300Y-216509600D01*
X254660400Y-224229200D02*
X254015400Y-224874200D01*
%TO.N,/1G1*%
X217912198Y-181915801D02*
X216317198Y-180320801D01*
X232734002Y-190582398D02*
X247370600Y-175945800D01*
X229362000Y-174802800D02*
X207695800Y-174802800D01*
X224288198Y-190582398D02*
X217912198Y-184206398D01*
X169167900Y-134569200D02*
X185775600Y-134569200D01*
X245995000Y-151130000D02*
X240842800Y-151130000D01*
X251434600Y-166319200D02*
X237845600Y-166319200D01*
X228193600Y-240743200D02*
X230276400Y-242826000D01*
X217912198Y-184206398D02*
X217912198Y-181915801D01*
X204317600Y-134569200D02*
X185775600Y-134569200D01*
X157329600Y-253415800D02*
X161395500Y-253415800D01*
X216317198Y-180320801D02*
X178174799Y-180320801D01*
X228838600Y-237296800D02*
X228346000Y-236804200D01*
X172976000Y-149910800D02*
X172976000Y-175122002D01*
X247191800Y-149933200D02*
X245995000Y-151130000D01*
X161395500Y-253415800D02*
X162763200Y-254783500D01*
X224917000Y-141503400D02*
X211251800Y-141503400D01*
X204838300Y-135089900D02*
X204317600Y-134569200D01*
X162360700Y-141376400D02*
X169167900Y-134569200D01*
X215773000Y-236804200D02*
X201168000Y-251409200D01*
X228346000Y-236804200D02*
X215773000Y-236804200D01*
X240842800Y-151130000D02*
X239488800Y-149776000D01*
X230276400Y-242826000D02*
X230276400Y-243103400D01*
X165025700Y-257046000D02*
X162763200Y-254783500D01*
X231841450Y-148427850D02*
X224917000Y-141503400D01*
X232734002Y-190582398D02*
X224288198Y-190582398D01*
X249809000Y-175945800D02*
X253593600Y-172161200D01*
X243023300Y-196627498D02*
X236978200Y-190582398D01*
X230276400Y-244066600D02*
X230276400Y-243103400D01*
X247370600Y-175945800D02*
X249809000Y-175945800D01*
X237845600Y-166319200D02*
X229362000Y-174802800D01*
X239488800Y-149776000D02*
X239488800Y-148427850D01*
X231575802Y-241507202D02*
X232782302Y-240300702D01*
X201168000Y-251409200D02*
X184986200Y-251409200D01*
X236978200Y-190582398D02*
X232734002Y-190582398D01*
X207695800Y-174802800D02*
X207695800Y-171177203D01*
X211251800Y-141503400D02*
X204838300Y-135089900D01*
X230276400Y-242806604D02*
X232782302Y-240300702D01*
X239488800Y-148427850D02*
X232501850Y-148427850D01*
X184986200Y-251409200D02*
X179349400Y-257046000D01*
X194146900Y-135089900D02*
X192889600Y-136347200D01*
X237083600Y-138203400D02*
X237083600Y-146022650D01*
X237083600Y-146022650D02*
X239488800Y-148427850D01*
X204838300Y-135089900D02*
X194146900Y-135089900D01*
X230276400Y-243103400D02*
X230276400Y-242806604D01*
X232501850Y-148427850D02*
X231841450Y-148427850D01*
X179349400Y-257046000D02*
X165025700Y-257046000D01*
X207695800Y-171177203D02*
X230445153Y-148427850D01*
X243023300Y-216509600D02*
X243023300Y-196627498D01*
X228193600Y-240743200D02*
X228838600Y-240098200D01*
X232782302Y-240300702D02*
X243023300Y-230059704D01*
X228838600Y-240098200D02*
X228838600Y-237296800D01*
X253593600Y-172161200D02*
X253593600Y-168478200D01*
X230425104Y-242657900D02*
X231575802Y-241507202D01*
X172976000Y-175122002D02*
X178174799Y-180320801D01*
X230445153Y-148427850D02*
X232501850Y-148427850D01*
X243023300Y-230059704D02*
X243023300Y-216509600D01*
X253593600Y-168478200D02*
X251434600Y-166319200D01*
%TO.N,/G1*%
X242544600Y-153771600D02*
X242548000Y-153775000D01*
X233809000Y-165047200D02*
X233809000Y-162835800D01*
X248211800Y-151330200D02*
X248211800Y-149933200D01*
X232056400Y-166799800D02*
X233809000Y-165047200D01*
X240944400Y-153771600D02*
X239114000Y-155602000D01*
X227985803Y-153442200D02*
X235025400Y-153442200D01*
X235025400Y-153442200D02*
X239114000Y-157530800D01*
X240944400Y-153771600D02*
X242544600Y-153771600D01*
X232056400Y-168224200D02*
X232056400Y-166799800D01*
X208912201Y-172515802D02*
X227985803Y-153442200D01*
X233809000Y-162835800D02*
X239114000Y-157530800D01*
X242548000Y-153775000D02*
X245767000Y-153775000D01*
X245767000Y-153775000D02*
X248211800Y-151330200D01*
X239114000Y-155602000D02*
X239114000Y-157530800D01*
%TO.N,/B1*%
X207848200Y-258241800D02*
X200456800Y-265633200D01*
X149250400Y-265633200D02*
X136347200Y-252730000D01*
X190652400Y-254067000D02*
X212064600Y-254067000D01*
X183413400Y-144281200D02*
X183413400Y-143332200D01*
X205912202Y-172515802D02*
X205912202Y-161208202D01*
X159771200Y-170515400D02*
X159816800Y-170561000D01*
X180543200Y-140462000D02*
X178028600Y-140462000D01*
X205912202Y-159907798D02*
X205912202Y-172515802D01*
X205912202Y-161208202D02*
X188985200Y-144281200D01*
X188985200Y-144281200D02*
X183413400Y-144281200D01*
X159816800Y-170561000D02*
X159537400Y-170561000D01*
X136347200Y-193751200D02*
X147599400Y-182499000D01*
X221208600Y-144611400D02*
X205912202Y-159907798D01*
X212598000Y-253533600D02*
X212556400Y-253533600D01*
X212064600Y-254067000D02*
X212598000Y-253533600D01*
X147599400Y-182499000D02*
X153606500Y-176491900D01*
X212556400Y-253533600D02*
X207848200Y-258241800D01*
X200456800Y-265633200D02*
X149250400Y-265633200D01*
X178028600Y-140462000D02*
X159771200Y-158719400D01*
X159771200Y-158719400D02*
X159771200Y-170515400D01*
X159537400Y-170561000D02*
X153606500Y-176491900D01*
X136347200Y-252730000D02*
X136347200Y-207492600D01*
X136347200Y-207492600D02*
X136347200Y-193751200D01*
X183413400Y-143332200D02*
X180543200Y-140462000D01*
%TO.N,/S1*%
X229160800Y-165860000D02*
X229160800Y-166348600D01*
X225309320Y-163815920D02*
X226812680Y-163815920D01*
X229160800Y-166348600D02*
X231036400Y-168224200D01*
X211912200Y-171880802D02*
X219977082Y-163815920D01*
X219977082Y-163815920D02*
X225309320Y-163815920D01*
X229160800Y-161467800D02*
X229160800Y-165860000D01*
X226812680Y-163815920D02*
X229160800Y-161467800D01*
X211912200Y-172515802D02*
X211912200Y-171880802D01*
%TO.N,/S2*%
X164134800Y-173683200D02*
X163169600Y-172718000D01*
X194740799Y-181915801D02*
X178308000Y-198348600D01*
X178308000Y-198348600D02*
X174193200Y-198348600D01*
X166497000Y-169390600D02*
X166497000Y-168886600D01*
X164134800Y-188290200D02*
X164134800Y-173683200D01*
X205912202Y-181915801D02*
X194740799Y-181915801D01*
X163169600Y-172718000D02*
X166497000Y-169390600D01*
X174193200Y-198348600D02*
X164134800Y-188290200D01*
%TO.N,/S3*%
X211912200Y-181915801D02*
X210317200Y-183510801D01*
X159054800Y-220495400D02*
X158568200Y-220008800D01*
X171526200Y-214274400D02*
X160346200Y-214274400D01*
X188569600Y-197231000D02*
X171526200Y-214274400D01*
X158568200Y-220008800D02*
X158568200Y-216052400D01*
X210317200Y-183510801D02*
X209630399Y-183510801D01*
X160346200Y-214274400D02*
X158568200Y-216052400D01*
X195910200Y-197231000D02*
X188569600Y-197231000D01*
X209630399Y-183510801D02*
X195910200Y-197231000D01*
%TO.N,/S4*%
X247446455Y-164972655D02*
X249579710Y-162839400D01*
X260883400Y-167005000D02*
X260883400Y-170942000D01*
X231013308Y-172515802D02*
X237659411Y-165869699D01*
X241723411Y-165285499D02*
X241774211Y-165285499D01*
X241460099Y-165548811D02*
X241723411Y-165285499D01*
X244422200Y-225042000D02*
X245182200Y-224282000D01*
X256717800Y-162839400D02*
X260883400Y-167005000D01*
X242087055Y-164972655D02*
X247446455Y-164972655D01*
X217912198Y-172515802D02*
X231013308Y-172515802D01*
X249579710Y-162839400D02*
X256717800Y-162839400D01*
X245182200Y-186643200D02*
X245182200Y-224282000D01*
X241190011Y-165869699D02*
X241460099Y-165599611D01*
X260883400Y-170942000D02*
X245182200Y-186643200D01*
X244422200Y-228650800D02*
X244422200Y-225042000D01*
X241460099Y-165599611D02*
X241460099Y-165548811D01*
X241774211Y-165285499D02*
X242087055Y-164972655D01*
X237659411Y-165869699D02*
X241190011Y-165869699D01*
%TO.N,/G2*%
X171745600Y-149910800D02*
X171956000Y-149910800D01*
X161239200Y-160417200D02*
X171745600Y-149910800D01*
X197508602Y-193319400D02*
X186461400Y-193319400D01*
X163169600Y-173738000D02*
X161239200Y-171807600D01*
X179501800Y-200279000D02*
X174827510Y-200279000D01*
X186461400Y-193319400D02*
X179501800Y-200279000D01*
X208912201Y-181915801D02*
X197508602Y-193319400D01*
X163169600Y-188621090D02*
X163169600Y-173738000D01*
X161239200Y-171807600D02*
X161239200Y-160417200D01*
X174827510Y-200279000D02*
X163169600Y-188621090D01*
%TO.N,/G3*%
X189142487Y-199302487D02*
X197525513Y-199302487D01*
X169660687Y-217057087D02*
X164301287Y-222416487D01*
X159054800Y-221515400D02*
X159955887Y-222416487D01*
X197525513Y-199302487D02*
X214912199Y-181915801D01*
X170448087Y-217057087D02*
X169660687Y-217057087D01*
X189142487Y-199302487D02*
X171387887Y-217057087D01*
X170408600Y-223647000D02*
X170448087Y-223607513D01*
X170408600Y-232299200D02*
X170408600Y-223647000D01*
X164582800Y-238125000D02*
X170408600Y-232299200D01*
X156309600Y-246398200D02*
X164582800Y-238125000D01*
X170448087Y-217057087D02*
X170448087Y-223607513D01*
X156309600Y-253415800D02*
X156309600Y-246398200D01*
X159955887Y-222416487D02*
X164301287Y-222416487D01*
X171387887Y-217057087D02*
X170448087Y-217057087D01*
%TO.N,/G4*%
X217147091Y-170280910D02*
X232612510Y-170280910D01*
X242789521Y-162389899D02*
X256903989Y-162389899D01*
X256903989Y-162389899D02*
X261332901Y-166818811D01*
X237473222Y-165420198D02*
X239759222Y-165420198D01*
X261332901Y-166818811D02*
X261332901Y-172017189D01*
X232612510Y-170280910D02*
X237473222Y-165420198D01*
X230276400Y-245086600D02*
X231221000Y-245086600D01*
X247015800Y-233450600D02*
X242857000Y-233450600D01*
X249571400Y-227496027D02*
X249571400Y-230895000D01*
X261332901Y-172017189D02*
X246185800Y-187164290D01*
X231221000Y-245086600D02*
X242857000Y-233450600D01*
X246185800Y-224265600D02*
X246202200Y-224282000D01*
X246357373Y-224282000D02*
X249571400Y-227496027D01*
X239759222Y-165420198D02*
X242789521Y-162389899D01*
X249571400Y-230895000D02*
X247015800Y-233450600D01*
X246202200Y-224282000D02*
X246357373Y-224282000D01*
X214912199Y-172515802D02*
X217147091Y-170280910D01*
X246185800Y-187164290D02*
X246185800Y-224265600D01*
%TO.N,Net-(J4-Pad1)*%
X233018200Y-182777399D02*
X233018200Y-179884200D01*
X233018200Y-179884200D02*
X244119400Y-168783000D01*
%TO.N,Net-(J4-Pad2)*%
X186385200Y-156794200D02*
X175285400Y-156794200D01*
X234124700Y-184670900D02*
X236018200Y-182777399D01*
X175285400Y-156794200D02*
X174938398Y-156794200D01*
X234124700Y-184670900D02*
X228155300Y-184670900D01*
X228155300Y-184670900D02*
X226120076Y-184670900D01*
X206781400Y-177190400D02*
X186385200Y-156794200D01*
X174938398Y-156794200D02*
X174819799Y-156912799D01*
X218639576Y-177190400D02*
X206781400Y-177190400D01*
X226120076Y-184670900D02*
X218639576Y-177190400D01*
%TO.N,Net-(J4-Pad3)*%
X161163000Y-247904000D02*
X179044600Y-247904000D01*
X233018200Y-193930400D02*
X233018200Y-192177398D01*
X161163000Y-247904000D02*
X161163000Y-247878600D01*
X161163000Y-247878600D02*
X161188400Y-247853200D01*
X179044600Y-247904000D02*
X233018200Y-193930400D01*
%TO.N,Net-(J4-Pad4)*%
X235586400Y-230071800D02*
X233476800Y-232181400D01*
X236018200Y-192177398D02*
X236018200Y-204671800D01*
X233476800Y-236601000D02*
X233476800Y-232181400D01*
X235586400Y-205103600D02*
X235586400Y-230071800D01*
X233476800Y-236601000D02*
X233476800Y-236550200D01*
X236018200Y-204671800D02*
X235586400Y-205103600D01*
%TO.N,Net-(R5-Pad1)*%
X242394200Y-142494000D02*
X242394200Y-143484600D01*
X234139200Y-134239000D02*
X237083600Y-137183400D01*
X220058600Y-139411400D02*
X225231000Y-134239000D01*
X237083600Y-137183400D02*
X242394200Y-142494000D01*
X225231000Y-134239000D02*
X234139200Y-134239000D01*
%TO.N,Net-(R10-Pad1)*%
X163969000Y-145780600D02*
X170668400Y-139081200D01*
X170668400Y-139081200D02*
X182263400Y-139081200D01*
X184997400Y-136347200D02*
X182263400Y-139081200D01*
X191869600Y-136347200D02*
X184997400Y-136347200D01*
%TO.N,Net-(R15-Pad1)*%
X168300400Y-260125400D02*
X177290000Y-260125400D01*
X190601400Y-258066000D02*
X191802400Y-259267000D01*
X177290000Y-260125400D02*
X179349400Y-258066000D01*
X179349400Y-258066000D02*
X190601400Y-258066000D01*
%TO.N,Net-(R20-Pad1)*%
X218440000Y-256870200D02*
X216576600Y-258733600D01*
X254660400Y-238582200D02*
X260654800Y-244576600D01*
X218440000Y-256565400D02*
X218440000Y-256870200D01*
X254660400Y-225249200D02*
X254660400Y-238582200D01*
X228193600Y-239723200D02*
X218440000Y-249476800D01*
X218440000Y-249476800D02*
X218440000Y-256565400D01*
X260654800Y-244576600D02*
X260654800Y-245389400D01*
X216576600Y-258733600D02*
X213748000Y-258733600D01*
X219608400Y-255397000D02*
X218440000Y-256565400D01*
X260654800Y-245389400D02*
X250647200Y-255397000D01*
X250647200Y-255397000D02*
X219608400Y-255397000D01*
%TD*%
M02*
